<svg id="Layer_1" enable-background="new 0 0 511.108 511.108" height="512" viewBox="0 0 511.108 511.108" width="512" xmlns="http://www.w3.org/2000/svg"><path d="m266.974 21.167c-5.888-4.804-14.34-4.802-20.226 0-50.254 40.988-84.045 130.485-66.938 208.633 18.061 82.518 136.024 82.592 154.101 0 17.347-79.239-17.442-168.264-66.937-208.633z" fill="#e0e0e0"/><path d="m274.78 112.706c-12.337-7.223-79.287 12.457-90.366 10.613-9.827 34.682-12.443 70.668-4.603 106.48 8.14 37.191 36.379 56.547 64.347 61.02 23.816-8.901 40.003-28.904 46.764-49.715 9.762-30.045 21.723-106.231-16.142-128.398z" fill="#d3d1d1"/><path d="m226.442 178.544c-70.166-41.079-165.557-35.318-219.107-.811-6.386 4.115-8.998 12.153-6.25 19.235 27.501 70.896 118.275 128.572 186.482 128.572 78.495.001 108.75-106.09 38.875-146.996z" fill="#e0e0e0"/><path d="m264.988 255.748c-5.524-8.382-12.456-15.548-20.082-21.088-25.559-18.571-85.944-44.303-118.728-15.14-10.68 9.5-21.304 70.509-26.573 80.734 24.9 13.414 50.96 22.053 79.216 24.849 45.632 4.527 81.146-27.909 86.167-69.355z" fill="#d3d1d1"/><path d="m159.44 273.496c-59.852 53.238-85.019 145.522-68.478 208.133 1.949 7.377 8.834 12.327 16.363 11.888 64.749-3.621 144.691-56.164 176.786-129.442 33.887-77.366-61.498-146.776-124.671-90.579z" fill="#e0e0e0"/><path d="m236.729 257.452c-7.865 2.687-15.156 6.511-21.521 11.135-25.559 18.569-85.789 41.965-68.185 82.155 5.736 13.096 55.267 38.988 63.752 50.666 7.489 10.307 16.262 20.28 25.952 29.613 20.354-19.605 36.221-41.463 47.384-66.948 20.334-46.422-6.184-92.544-47.382-106.621z" fill="#d3d1d1"/><path d="m354.282 273.496c-63.117-56.139-158.59 13.139-124.671 90.578 35.28 80.549 124.676 129.468 177.687 129.468 7.22 0 13.598-4.86 15.461-11.913 16.215-61.38-7.541-153.928-68.477-208.133z" fill="#e0e0e0"/><path d="m402.986 338.593c-12.331-25.173-28.089-46.759-48.704-65.097-62.792-55.85-158.802 12.654-124.671 90.578 15.77 2.427 66.663 25.833 100.306 22.546 41.831-4.086 66.351-36.327 73.069-48.027z" fill="#d3d1d1"/><path d="m503.773 177.733c-46.331-29.855-113.973-34.138-167.343-20.404 3.329 24.362 2.794 48.203-2.518 72.47-9.108 41.611-43.375 60.905-74.273 61.996 14.486 21.387 37.868 33.729 64.175 33.729 67.15 0 158.435-56.955 186.21-128.556 2.747-7.082.135-15.12-6.251-19.235z" fill="#e0e0e0"/><path d="m266.178 291.286c12.071 6.419 25.414 9.496 38.044 9.496 31.592 0 94.986 10.401 104.367-32.461 3.057-13.963-22.71-57.952-22.71-72.39 0-14.785-1.656-30.222-4.805-45.589-15.298.968-30.404 3.322-44.644 6.986 3.329 24.362 2.794 48.203-2.518 72.47-8.47 38.695-38.693 58.082-67.734 61.488z" fill="#d3d1d1"/><path d="m256.861 207.797c-36.287 0-65.808 29.521-65.808 65.809 0 36.286 29.521 65.808 65.808 65.808s65.808-29.521 65.808-65.808c0-36.288-29.522-65.809-65.808-65.809z" fill="#eaeaea"/><path d="m256.861 207.797c-36.287 0-65.808 29.521-65.808 65.809 0 36.286 54.648-14.259 90.934-14.259s40.682 50.545 40.682 14.259c0-36.288-29.522-65.809-65.808-65.809z" fill="#f9f9f9"/></svg>