<?xml version="1.0" encoding="UTF-8" standalone="no"?>
<!-- Created with Inkscape (http://www.inkscape.org/) -->

<svg
   xmlns:dc="http://purl.org/dc/elements/1.1/"
   xmlns:cc="http://creativecommons.org/ns#"
   xmlns:rdf="http://www.w3.org/1999/02/22-rdf-syntax-ns#"
   xmlns:svg="http://www.w3.org/2000/svg"
   xmlns="http://www.w3.org/2000/svg"
   xmlns:sodipodi="http://sodipodi.sourceforge.net/DTD/sodipodi-0.dtd"
   xmlns:inkscape="http://www.inkscape.org/namespaces/inkscape"
   width="1280"
   height="800"
   viewBox="0 0 1280 800.00001"
   id="svg4730"
   version="1.1"
   inkscape:version="0.91 r13725"
   inkscape:export-filename="/home/mirza/Gambar/Wallpaper/takami-chika.jpg"
   inkscape:export-xdpi="90"
   inkscape:export-ydpi="90"
   sodipodi:docname="drawing-1.svg">
  <defs
     id="defs4732" />
  <sodipodi:namedview
     id="base"
     pagecolor="#ffffff"
     bordercolor="#666666"
     borderopacity="1.0"
     inkscape:pageopacity="0.0"
     inkscape:pageshadow="2"
     inkscape:zoom="0.55526376"
     inkscape:cx="643.74279"
     inkscape:cy="346.14052"
     inkscape:document-units="px"
     inkscape:current-layer="layer1"
     showgrid="false"
     units="px"
     inkscape:snap-page="true"
     inkscape:window-width="1280"
     inkscape:window-height="776"
     inkscape:window-x="0"
     inkscape:window-y="0"
     inkscape:window-maximized="1" />
  <metadata
     id="metadata4735">
    <rdf:RDF>
      <cc:Work
         rdf:about="">
        <dc:format>image/svg+xml</dc:format>
        <dc:type
           rdf:resource="http://purl.org/dc/dcmitype/StillImage" />
        <dc:title />
      </cc:Work>
    </rdf:RDF>
  </metadata>
  <g
     inkscape:label="Layer 1"
     inkscape:groupmode="layer"
     id="layer1"
     transform="translate(0,-252.36216)">
    <rect
       style="opacity:1;fill:#f79759;fill-opacity:0.94117647;fill-rule:nonzero;stroke:none;stroke-width:0.2;stroke-linecap:butt;stroke-linejoin:round;stroke-miterlimit:4;stroke-dasharray:none;stroke-dashoffset:0;stroke-opacity:1"
       id="rect6391"
       width="1280"
       height="800"
       x="0"
       y="252.36217" />
    <path
       style="display:inline;opacity:0.99;fill:none;fill-opacity:1;fill-rule:nonzero;stroke:#ffffff;stroke-width:20;stroke-linecap:butt;stroke-linejoin:round;stroke-miterlimit:4;stroke-dasharray:none;stroke-dashoffset:0;stroke-opacity:0.82580644"
       d="m 893.22994,324.98903 c -8.01383,-0.0385 -16.07153,0.31652 -24.15625,0.91601 -33.43056,11.27357 -56.65214,33.75621 -64.85351,72.73243 3.19381,46.28331 -17.72036,73.04228 -35.88477,97.14062 -2.87001,1.60506 -5.42023,3.36994 -6.69727,5.77148 l -1.85742,12.81055 c -5.14872,4.57494 -7.21211,10.38346 -8.91211,16.33789 l -0.92773,21.53711 2.78516,4.26953 c -1.56302,4.76465 -3.26459,9.57633 -5.06446,14.41992 -6.80772,0.70125 -13.73532,1.23614 -20.63867,2.0586 -15.97173,2.73575 -23.23511,9.82489 -33.87109,15.22851 l 15.49218,1.3125 c 4.53559,-1.04746 14.9988,2.35206 28.32618,7.89844 -7.50349,17.36917 -15.98186,35.06345 -24.71875,52.84375 -2.43057,19.79478 0.12639,35.36839 4.08398,49.75781 3.60252,3.67118 7.81506,2.46457 11.88281,2.41407 12.19951,-7.48962 22.96182,-17.00685 33.1211,-26.72461 l -0.97071,0.94336 c 4.49293,3.3552 8.82445,6.95192 14.26563,8.88476 l 6.9668,-5.49609 3.18554,-2.51172 c 0,0 0,-0.002 0,-0.002 l 2.11133,-1.66602 2.23633,-1.76367 0.53906,-0.42578 2.7168,-2.14453 2.48242,-1.95704 11.32422,-0.92773 0.006,0 10.58203,-15.9668 3.8457,1.04297 c 0.003,0.004 0.005,0.008 0.008,0.0117 5.11204,17.10825 14.59819,33.34111 13.06055,51.7793 3.2547,16.28751 -8.42307,29.02154 -14.55469,43.07422 l -0.004,0 c 4.93948,3.81375 10.90887,7.20431 17.61914,10.13281 l -0.24219,11.61719 -0.0898,4.24218 -0.17383,8.32618 -7.96289,-0.26172 c -13.60063,11.90892 -26.00998,40.46444 -38.88477,62.53515 l -17.82226,25.58594 c -0.40961,0.5279 -0.81891,1.05661 -1.22852,1.58008 l -3.53906,4.48242 c -2.14859,2.69434 -4.29673,5.36373 -6.44531,8.02344 l -1.18946,1.47265 c 0,0 0.002,0.002 0.002,0.002 -2.49229,3.08744 -4.98623,6.18469 -7.47852,9.35547 3.33669,18.01122 12.30846,35.45785 22.58203,52.77539 l 11.55274,-10.50196 c 0.38447,0.39966 0.79718,0.79506 1.1914,1.19336 l -4.53906,38.39844 0.0117,0 c -6.03008,50.50201 -11.55079,101.17301 -11.63086,153.65821 -19.09555,31.9998 -43.02249,63.6987 -47.26172,96.627 -9.88175,42.6992 -13.50813,72.8397 -13.02344,92.8906 l -0.0176,0.01 c 0.0211,0.7438 0.0505,1.4293 0.0742,2.1563 0.006,0.1472 0.009,0.3012 0.0156,0.4473 1.15875,34.634 5.08278,50.6482 -0.26563,83.7031 l 0.34961,16.4121 c -7.15468,27.4413 -5.7045,55.9574 -7.87695,84.0215 12.96916,9.5963 26.90066,16.4535 48.83789,0.5254 3.83853,-12.206 -2.37385,-25.5289 -11.02734,-39.123 0.68583,-14.5081 1.53289,-29.2778 -0.20703,-39.8672 l 0.0137,0.01 c -2.77196,-39.2961 5.26465,-78.5925 21.54297,-117.8887 0.8248,-1.8534 1.62551,-3.765 2.41211,-5.707 0.0886,-0.2039 0.17074,-0.4074 0.25976,-0.6113 l -0.0117,0 c 7.07116,-17.6346 12.44868,-38.7232 14.0625,-60.9629 -2.44611,0.5682 -4.79326,0.9952 -7.05078,1.291 2.35192,-0.436 4.70614,-0.8871 7.05078,-1.291 8.54309,-31.0495 19.97705,-57.5567 35.44727,-77.7207 24.18192,-56.3296 47.03606,-112.4696 65.88281,-168.03714 l 0.0156,0.004 c 1.04558,-2.87999 2.02237,-5.69189 2.97265,-8.47657 l 11.73828,-0.19922 -0.39453,-2.88867 21.97461,-0.68359 0,-0.11328 c 0.31299,4.92795 0.83776,9.82981 1.65039,14.69527 0.12479,0.8814 0.25541,1.7632 0.40039,2.6446 7.98877,34.7498 15.92194,69.4241 21.00586,100.3008 l 0.52539,55.1406 6.30078,28.3574 c 0.54797,19.7367 4.10908,39.0961 -2.67968,59.75 l 1.85742,39.7324 c 8.79898,40.5161 15.41339,81.6565 14.48047,124.9532 -2.34382,14.3977 -5.49318,24.7668 -6.49805,45.8594 -2.75306,11.3749 -6.42406,22.0937 -12.625,31.0058 -1.8924,5.0749 -0.38473,10.1498 0.55664,15.2247 4.05699,10.0284 15.33993,14.0354 28.22266,16.7089 3.41968,-1.0213 6.33271,-2.3416 8.80664,-3.9297 6.03978,-3.2755 11.51483,-8.4281 11.61914,-19.0273 1.22524,-7.8491 0.35522,-17.1385 -1.41016,-27.2852 -0.86567,-6.2129 -2.11909,-12.4257 -3.79297,-18.6386 l 3.15625,-0.9278 -0.74218,-16.7109 -3.1211,-0.2715 c 1.50045,-18.8796 3.47894,-39.4322 3.67774,-53.7558 14.04034,-42.2686 10.86199,-89.3207 13.36914,-134.793 -4.52295,-28.1075 -9.53973,-57.2034 -9.28321,-75.752 8.43851,-67.9852 17.96031,-137.5945 22.26761,-199.38284 l 0.014,-0.006 c 16.6061,-10.78785 34.6097,-20.27686 46.6055,-35.34571 -2.281,-11.29964 -7.8524,-18.75977 -14.3008,-25.19726 -0.7933,-2.48843 -1.623,-4.94405 -2.4688,-7.38477 l -0.2754,-0.82617 c 0,10e-4 -0.01,0.003 -0.01,0.004 -0.3952,-1.13041 -0.7968,-2.25461 -1.2031,-3.375 0,-0.002 0,-0.004 0.01,-0.006 l -0.2676,-0.70508 c -0.8828,-2.41634 -1.7878,-4.81277 -2.7207,-7.1836 l -0.1367,-0.36132 c 0,10e-4 0,0.003 -0.01,0.004 -13.2489,-33.54847 -31.4374,-62.60775 -52.24025,-89.28906 -0.007,-0.0176 -0.0127,-0.0351 -0.0195,-0.0527 l -0.73828,-0.91211 c -3.49352,-4.4576 -7.05549,-8.85225 -10.68359,-13.1875 l -0.53125,-0.65625 c 0.01,0.02 0.0193,0.0405 0.0293,0.0605 -1.23425,-1.47077 -2.46295,-2.94601 -3.71093,-4.40429 l -0.27735,-5.63282 -0.9043,-18.39257 c 2.05298,-1.59315 4.1214,-3.17906 6.1211,-4.79883 1.1985,-0.93795 2.35305,-1.90732 3.45117,-2.91797 4.45554,-3.95415 8.24942,-8.23926 10.25195,-13.41992 -0.25975,-13.64999 -3.43298,-26.00564 -8.13867,-37.67969 -0.009,-1.11862 -0.0476,-2.28306 -0.0977,-3.4668 -0.0245,-0.71061 -0.0552,-1.41954 -0.0859,-2.1289 7.06994,14.37366 15.11957,27.76881 24.6016,39.73047 17.8121,30.07826 35.3067,63.965 54.5312,77.0957 19.06,20.31932 40.1278,40.63511 57.5567,62.38281 7.7112,7.17495 17.4278,1.25142 26.9219,6.49805 5.7167,4.76271 11.679,7.7991 17.7441,10.12109 2.6248,0.64897 3.2129,-1.02961 3.4141,-3.15039 -7.1377,-7.65915 -15.0939,-13.47591 -23.6309,-17.98633 l 0.3926,-3.54492 c 8.7922,-1.54355 17.3558,-3.96173 27.5391,-1.33203 6.5432,3.5537 12.946,8.35518 16.7051,9.47266 1.3728,-0.42358 2.8219,-0.74031 2.4941,-3.54493 -5.7841,-5.29669 -11.6333,-9.49485 -17.0996,-12.88476 -14.9425,-7.04543 -29.5751,-12.46225 -47.6231,-15.73633 -3.4624,-0.50786 -7.0961,-1.87094 -10.2402,-0.78711 -35.0471,-57.02407 -61.3621,-93.82557 -83.1368,-120.11328 -5.3604,-9.45684 -10.1631,-18.9123 -11.1269,-28.36914 -2.5274,-5.97312 -3.8773,-12.99801 -4.4141,-19.66992 2.8919,-3.3941 5.0194,-6.75825 5.9082,-9.72461 -0.5475,-1.95397 -1.0832,-3.92452 -1.6836,-5.81055 0,-0.003 0,-0.007 0.01,-0.01 l -0.066,-0.17773 c -0.4121,-1.27984 -0.8696,-2.50234 -1.3828,-3.65234 l -0.123,-0.32813 c 0,0.006 -0.011,0.0119 -0.016,0.0176 -0.3835,-0.82837 -0.7921,-1.62559 -1.2598,-2.3457 10e-4,-10e-4 0,-0.003 0,-0.004 -0.6737,-1.22072 -1.6077,-2.18139 -2.7187,-2.96484 -1.9063,-3.76925 -2.6604,-8.69155 -3.1817,-13.84571 0,-0.002 0,-0.004 0.01,-0.006 1.6425,-15.40715 3.489,-30.86175 -19.49414,-40.4746 -2.98267,-12.97409 -6.16048,-33.7033 -16.96679,-36.32032 0.004,-0.005 0.008,-0.009 0.0117,-0.0137 -1.62583,-0.62202 -6.24774,-2.83421 -12.31836,-5.70703 l 4.38867,-5.49024 c 3.54468,-4.26307 5.21702,-8.63931 5.85937,-13.08007 -0.59631,4.92561 -2.2449,9.41203 -5.85937,13.08007 11.25159,-1.44695 10.0515,-14.86653 8.72656,-28.40624 10.93518,4.96345 10.76383,17.11299 13.92383,27.10742 0.0534,-11.12307 -2.32866,-22.92256 -5.67578,-34.99024 0.12778,-2.84958 0.49585,-5.55528 1.77734,-7.71289 2.35783,-5.40623 6.11941,-8.70612 9.83984,-12.06836 -5.96044,-1.73728 -9.41894,-6.28597 -12.43945,-11.32617 -1.60035,-5.03506 -3.39945,-10.03694 -2.9707,-15.41016 -1.97611,1.07028 -3.84677,2.2732 -5.62109,3.59571 l 0,-0.004 c -1.09558,-11.36676 -0.0231,-27.2645 4.32226,-50.00781 -0.0232,-2.19622 -0.0935,-4.35324 -0.1875,-6.49023 l -0.0215,-0.73243 c -0.004,0.002 -0.006,0.006 -0.01,0.008 -2.04149,-42.55287 -18.57503,-72.97647 -62.08008,-80.82618 -7.91025,-0.97074 -15.88069,-1.40293 -23.89453,-1.4414 z m 68.8457,110.61718 0.01,0.0449 c -0.074,0.38189 -0.15921,0.77444 -0.24023,1.16211 0.0814,-0.40843 0.15533,-0.8075 0.23046,-1.20704 z m -0.40625,2.04297 c -0.0491,0.22427 -0.0991,0.45117 -0.15039,0.67774 0.0469,-0.22119 0.10521,-0.45887 0.15039,-0.67774 z m -4.93945,18.71289 c -0.0564,0.20916 -0.0975,0.35274 -0.1543,0.56446 l -0.11132,0.29883 c 0.0893,-0.28837 0.17748,-0.57588 0.26562,-0.86329 z m 4.76563,2.8418 c 0.0891,0.0298 0.17444,0.05 0.26562,0.0859 -0.0107,0.0331 -0.0188,0.0646 -0.0293,0.0976 -0.0737,-0.065 -0.16002,-0.12053 -0.23632,-0.18359 z M 792.8608,476.43043 c -0.15138,0.59882 -0.29571,1.19451 -0.45508,1.79688 l -4.42773,14.01953 c -0.48257,1.29745 -0.99364,2.60865 -1.5293,3.92969 l -0.084,0.004 c 0.0541,-4.27846 -5.59442,-4.27823 -12.47266,-3.35742 l 18.96875,-16.39258 z m 178.76367,24.18946 c 0.19181,6.77417 1.48032,14.00554 1.91016,20.8789 -0.57238,-6.95533 -2.23358,-13.97841 -1.91016,-20.8789 z m -155.79883,3.14062 c 2.61009,18.73368 8.93015,35.66196 12.11329,39.76367 -2.08359,0.851 -4.1866,1.67505 -6.3125,2.4668 l -3.50196,1.25781 c -2.42041,0.85592 -4.867,1.67453 -7.33984,2.45703 l -5.90625,1.78516 c -3.15993,0.91194 -6.34582,1.78821 -9.58594,2.58789 -7.41023,6.72821 -15.88637,10.62191 -24.97266,13.06836 0.75462,-2.1314 1.54229,-4.22326 2.39063,-6.24219 10.81249,-8.02216 24.32877,-17.51938 30.19531,-22.84375 0.87537,-6.69734 -1.59253,-16.76367 3.41406,-19.29883 l 0.88868,-1.69336 13.89843,14.61133 c -6.71553,-10.8769 -7.77183,-18.61019 -7.26562,-25.2832 0.64955,-0.89578 1.31257,-1.77308 1.98437,-2.63672 z m 92.08204,25.49609 c -0.0296,0.0345 -0.0552,0.0689 -0.084,0.10352 l -0.002,-0.0879 0.0859,-0.0156 z m 58.15234,0.53321 0.0977,0.9082 -0.66211,0.9375 c 0.19811,-0.61172 0.38666,-1.22741 0.56445,-1.8457 z m -64.40039,24.86328 c -1.18444,0.13355 -2.3361,0.3356 -3.46094,0.59375 l -0.0215,-0.0469 c -1.61795,0.20074 -3.3339,0.63028 -5.15235,1.29883 2.49891,-0.99395 5.313,-1.6746 8.63477,-1.8457 z m -105.11719,7.42187 c 10e-4,6.4e-4 0.003,10e-4 0.004,0.002 -0.003,10e-4 -0.005,0.002 -0.008,0.004 l 0.004,-0.006 z m 19.11524,8.63477 c 0.53057,0.22436 1.04939,0.43614 1.57617,0.65625 -0.3443,-0.12268 -0.69829,-0.24432 -1.04102,-0.36719 -0.11366,-0.0501 -0.2281,-0.10213 -0.34179,-0.15234 -0.0647,-0.0447 -0.12854,-0.0924 -0.19336,-0.13672 z m 101.5,24.77539 c 0.005,0.002 0.009,0.002 0.0137,0.004 -0.0104,9.4e-4 -0.0208,0.003 -0.0312,0.004 0.006,-0.003 0.0118,-0.005 0.0176,-0.008 z M 759.2358,637.0066 c 0.56475,0.65626 1.12625,1.31684 1.67969,1.98633 -0.55652,-0.57406 -1.10698,-1.14824 -1.69141,-1.72265 0.004,-0.0884 0.008,-0.17528 0.0117,-0.26368 z m 223.66992,795.4688 0.88477,0.8125 -0.83985,-0.072 -0.0449,-0.7402 z"
       id="path6127"
       inkscape:connector-curvature="0" />
    <g
       id="g5989"
       transform="matrix(1.1177158,0,0,1.1177158,-141.25022,-56.861008)">
      <path
         sodipodi:nodetypes="ccccc"
         inkscape:connector-curvature="0"
         id="path4401"
         d="m 1062.8828,864.21284 c 5.7693,5.75951 10.7553,12.4328 12.796,22.54238 -10.7324,13.48183 -26.8404,21.97196 -41.6976,31.62366 l 1.6728,-36.8828 z"
         style="display:inline;opacity:1;fill:#6e7475;fill-opacity:1;fill-rule:nonzero;stroke:none;stroke-width:2;stroke-linecap:butt;stroke-linejoin:round;stroke-miterlimit:4;stroke-dasharray:none;stroke-dashoffset:0;stroke-opacity:0.32156863" />
      <path
         sodipodi:nodetypes="ccccc"
         inkscape:connector-curvature="0"
         id="path4292"
         d="m 762.22175,1309.7228 c 4.90582,-30.3196 1.08513,-44.564 0.1576,-77.217 l 48.4274,-14.245 c -16.17177,37.0416 -24.27788,74.0833 -21.66495,111.1249 z"
         style="display:inline;opacity:1;fill:#15171f;fill-opacity:1;fill-rule:nonzero;stroke:none;stroke-width:1;stroke-linecap:round;stroke-linejoin:round;stroke-miterlimit:4;stroke-dasharray:none;stroke-dashoffset:0;stroke-opacity:1" />
      <path
         sodipodi:nodetypes="ccccccc"
         inkscape:connector-curvature="0"
         id="path4266"
         d="m 1022.3517,1164.5417 c -2.2431,40.6832 0.6016,82.7797 -11.96,120.5966 -0.1786,12.8688 -1.9641,31.3615 -3.3085,48.3107 l -21.60815,-19.9057 c 0.83466,-38.7367 -5.08437,-75.5437 -12.95666,-111.7927 l -1.66111,-35.5478 c 17.70315,6.7138 35.03922,8.4716 51.49442,-1.6611 z"
         style="display:inline;opacity:1;fill:#2f3245;fill-opacity:1;fill-rule:nonzero;stroke:none;stroke-width:1;stroke-linecap:round;stroke-linejoin:round;stroke-miterlimit:4;stroke-dasharray:none;stroke-dashoffset:0;stroke-opacity:1" />
      <path
         sodipodi:nodetypes="cccccccccccc"
         inkscape:connector-curvature="0"
         id="path4262"
         d="m 985.47505,1313.5433 c 5.89064,-2.7033 11.42314,-7.0542 19.43505,0 l 1.1627,19.6011 3.8206,0.3323 0.6644,14.95 -2.8239,0.8305 c 3.5952,13.3443 5.0421,26.6885 4.6511,40.0328 0.4055,15.0851 -10.853,18.4522 -18.27218,21.5944 -11.52594,-2.3919 -21.61917,-5.9778 -25.24888,-14.95 -0.84223,-4.5403 -2.19144,-9.0807 -0.49834,-13.6211 5.54787,-7.9735 8.83245,-17.5636 11.29556,-27.7405 0.89904,-18.8712 3.71691,-28.1481 5.81389,-41.0295 z"
         style="display:inline;opacity:1;fill:#37372f;fill-opacity:1;fill-rule:nonzero;stroke:none;stroke-width:1;stroke-linecap:round;stroke-linejoin:round;stroke-miterlimit:4;stroke-dasharray:none;stroke-dashoffset:0;stroke-opacity:1" />
      <path
         sodipodi:nodetypes="ccccccccc"
         inkscape:connector-curvature="0"
         id="path4264"
         d="m 1007.0832,1333.449 -0.3524,13.6252 -10.10144,1.527 c 14.07804,14.5094 15.72874,31.4467 -1.87933,42.4024 l -0.63721,19.8808 c 24.84868,-7.4211 20.06898,-32.3835 13.62108,-61.6272 l 2.8239,-0.8305 -0.6644,-14.95 z"
         style="display:inline;opacity:1;fill:#171714;fill-opacity:1;fill-rule:nonzero;stroke:none;stroke-width:1;stroke-linecap:round;stroke-linejoin:round;stroke-miterlimit:4;stroke-dasharray:none;stroke-dashoffset:0;stroke-opacity:1" />
      <path
         sodipodi:nodetypes="cccc"
         inkscape:connector-curvature="0"
         id="path4270"
         d="m 786.49651,1320.881 c 4.76085,8.5488 3.65014,26.5823 2.81899,44.1643 l -9.98431,-19.2764 z"
         style="display:inline;opacity:1;fill:#151512;fill-opacity:1;fill-rule:nonzero;stroke:none;stroke-width:1;stroke-linecap:round;stroke-linejoin:round;stroke-miterlimit:4;stroke-dasharray:none;stroke-dashoffset:0;stroke-opacity:1" />
      <path
         sodipodi:nodetypes="cccccc"
         inkscape:connector-curvature="0"
         id="path4268"
         d="m 762.53502,1324.4048 c 7.98716,-9.7439 15.97433,-9.4105 23.96149,-3.5238 -0.85967,12.1398 -9.33789,13.3486 2.81899,44.1643 7.74212,12.1624 13.30077,24.0821 9.86651,35.0026 -19.62684,14.2506 -32.09122,8.1158 -43.69449,-0.4698 1.94365,-25.1085 0.64634,-50.6221 7.0475,-75.1733 z"
         style="display:inline;opacity:1;fill:#393930;fill-opacity:1;fill-rule:nonzero;stroke:none;stroke-width:1;stroke-linecap:round;stroke-linejoin:round;stroke-miterlimit:4;stroke-dasharray:none;stroke-dashoffset:0;stroke-opacity:1" />
      <path
         sodipodi:nodetypes="ccccc"
         inkscape:connector-curvature="0"
         id="path4288"
         d="m 762.53502,1324.4048 -0.31327,-14.682 c 8.0287,-16.001 16.0574,-13.7567 24.0861,0.3322 l 0.18866,10.826 z"
         style="display:inline;opacity:1;fill:#30334a;fill-opacity:1;fill-rule:nonzero;stroke:none;stroke-width:1;stroke-linecap:round;stroke-linejoin:round;stroke-miterlimit:4;stroke-dasharray:none;stroke-dashoffset:0;stroke-opacity:1" />
      <path
         sodipodi:nodetypes="ccc"
         inkscape:connector-curvature="0"
         id="path4290"
         d="m 774.04593,1149.3919 c 12.45012,10.5458 25.79617,19.7975 49.33247,14.3299 -6.93438,95.5612 -91.43485,167.5954 -49.33247,-14.3299 z"
         style="display:inline;opacity:1;fill:#30334a;fill-opacity:1;fill-rule:nonzero;stroke:none;stroke-width:1;stroke-linecap:round;stroke-linejoin:round;stroke-miterlimit:4;stroke-dasharray:none;stroke-dashoffset:0;stroke-opacity:1" />
      <path
         sodipodi:nodetypes="cccccccccc"
         inkscape:connector-curvature="0"
         id="path4332"
         d="m 970.85728,1166.2028 c 23.93398,17.0461 37.53922,8.3144 51.49442,-1.6611 -4.0466,-25.1473 -8.535,-51.1782 -8.3055,-67.7733 9.1419,-73.6519 19.7249,-149.46556 21.6968,-212.36234 l -89.26832,22.55198 c 0.21068,13.78177 -0.38777,27.56355 1.87933,41.34532 7.14741,31.08999 14.24484,62.11334 18.79333,89.73814 l 0.46983,49.3325 5.63799,25.371 c 0.49026,17.658 3.6759,34.9792 -2.39788,53.4578 z"
         style="display:inline;opacity:1;fill:#ffebdf;fill-opacity:1;fill-rule:nonzero;stroke:none;stroke-width:1;stroke-linecap:round;stroke-linejoin:round;stroke-miterlimit:4;stroke-dasharray:none;stroke-dashoffset:0;stroke-opacity:1" />
      <path
         sodipodi:nodetypes="ccccccccc"
         inkscape:connector-curvature="0"
         id="path4342"
         d="m 948.76019,950.07039 22.61564,-10.22403 4.69834,4.93324 46.04363,-25.60589 3.0539,3.28883 8.8095,-4.08366 c 1.0475,-11.6004 1.4917,-22.83886 1.7618,-33.97282 l -89.26832,22.55198 c -0.57516,14.53791 -0.64051,29.01209 2.28551,43.11235 z"
         style="display:inline;opacity:1;fill:#f2b195;fill-opacity:1;fill-rule:nonzero;stroke:none;stroke-width:1;stroke-linecap:round;stroke-linejoin:round;stroke-miterlimit:4;stroke-dasharray:none;stroke-dashoffset:0;stroke-opacity:1" />
      <path
         sodipodi:nodetypes="ccccc"
         inkscape:connector-curvature="0"
         id="path4344"
         d="m 999.91822,1100.823 c -3.47356,6.2365 -8.55816,8.7907 -14.21246,10.0427 -3.70405,-2.7502 -9.62466,-3.5794 -9.04427,-10.0427 0.67831,-4.9465 3.46859,-7.2513 12.21565,-8.1634 7.09823,-1.689 13.48436,-2.4592 11.04108,8.1634 z"
         style="display:inline;opacity:1;fill:#f2b195;fill-opacity:1;fill-rule:nonzero;stroke:none;stroke-width:1;stroke-linecap:round;stroke-linejoin:round;stroke-miterlimit:4;stroke-dasharray:none;stroke-dashoffset:0;stroke-opacity:1" />
      <path
         sodipodi:nodetypes="ccccccc"
         inkscape:connector-curvature="0"
         id="path4347"
         d="m 774.04593,1149.3919 c 3.79277,-29.4603 25.20054,-57.8197 42.28498,-86.4493 0.10077,-66.05622 9.81243,-128.90887 16.91399,-192.63154 l 93.49679,33.82799 c -18.70857,62.60994 -44.23781,126.19425 -71.64954,190.04745 -13.84092,18.0404 -24.0704,41.7559 -31.71375,69.5353 -18.23645,3.1413 -37.14377,9.2462 -49.33247,-14.3299 z"
         style="display:inline;opacity:1;fill:#ffebdf;fill-opacity:1;fill-rule:nonzero;stroke:none;stroke-width:1;stroke-linecap:round;stroke-linejoin:round;stroke-miterlimit:4;stroke-dasharray:none;stroke-dashoffset:0;stroke-opacity:1" />
      <path
         sodipodi:nodetypes="ccccccccc"
         inkscape:connector-curvature="0"
         id="path4349"
         d="m 826.72545,925.46731 7.69404,0.0492 2.34916,-7.51734 56.14506,30.06932 5.40308,-7.75224 15.73289,3.53388 c 5.13349,-14.13982 8.83977,-26.85246 12.69201,-39.71103 L 833.2449,870.31111 Z"
         style="display:inline;opacity:1;fill:#f2b195;fill-opacity:1;fill-rule:nonzero;stroke:none;stroke-width:1;stroke-linecap:round;stroke-linejoin:round;stroke-miterlimit:4;stroke-dasharray:none;stroke-dashoffset:0;stroke-opacity:1" />
      <path
         style="display:inline;opacity:1;fill:#f2b195;fill-opacity:1;fill-rule:nonzero;stroke:none;stroke-width:1;stroke-linecap:round;stroke-linejoin:round;stroke-miterlimit:4;stroke-dasharray:none;stroke-dashoffset:0;stroke-opacity:1"
         d="m 845.21389,1094.5952 c -2.80717,7.1051 -7.03523,12.7893 -12.05301,17.6838 l -6.55262,-1.7371 c -1.70863,-7.5598 -3.75596,-15.1831 1.41843,-21.4523 8.266,-3.746 13.32939,-0.4463 17.1872,5.5056 z"
         id="path4351"
         inkscape:connector-curvature="0"
         sodipodi:nodetypes="ccccc" />
      <path
         inkscape:connector-curvature="0"
         id="path4384"
         d="m 916.59445,936.26794 10.61707,-0.18024 -0.35237,-2.58409 19.66043,-0.61278 0.009,-19.23785 -26.71734,3.52393 z"
         style="display:inline;opacity:1;fill:#6e7475;fill-opacity:1;fill-rule:nonzero;stroke:none;stroke-width:2;stroke-linecap:butt;stroke-linejoin:round;stroke-miterlimit:4;stroke-dasharray:none;stroke-dashoffset:0;stroke-opacity:0.32156863" />
      <path
         sodipodi:nodetypes="ccccc"
         inkscape:connector-curvature="0"
         id="path4586"
         d="m 947.20844,583.64145 c -2.23291,-16.73415 6.01062,-49.3931 -8.07838,-50.82022 -2.1289,-2.97941 -2.46318,-5.82421 -0.16611,-8.47167 4.98935,-4.69255 54.5119,20.71468 60.41618,22.97358 -12.87507,16.6216 -30.89001,28.10332 -52.17169,36.31831 z"
         style="opacity:1;fill:#b7bebf;fill-opacity:1;fill-rule:nonzero;stroke:none;stroke-width:0.2;stroke-linecap:butt;stroke-linejoin:round;stroke-miterlimit:4;stroke-dasharray:none;stroke-dashoffset:0;stroke-opacity:1" />
      <path
         sodipodi:nodetypes="ccccc"
         inkscape:connector-curvature="0"
         id="path4588"
         d="m 946.83694,573.0244 c 17.51553,-4.64697 31.7915,-15.31036 45.98143,-28.69407 l -4.45851,-2.11078 c -9.11409,11.56314 -19.769,21.42642 -41.48738,26.82728 z"
         style="opacity:1;fill:#f7f6f5;fill-opacity:1;fill-rule:nonzero;stroke:none;stroke-width:0.2;stroke-linecap:butt;stroke-linejoin:round;stroke-miterlimit:4;stroke-dasharray:none;stroke-dashoffset:0;stroke-opacity:0.32156863" />
      <path
         sodipodi:nodetypes="ccccccccccccccccccccc"
         inkscape:connector-curvature="0"
         id="path4726"
         d="m 819.03174,491.79179 17.10944,-14.78389 -5.48166,17.35861 30.61516,32.19039 c -8.74014,-14.15607 -6.76793,-22.35461 -5.36032,-30.35045 2.16455,23.60364 12.02662,46.12998 13.07715,41.0937 l 70.84678,-13.07989 c 6.16802,0.54714 10.72046,3.42288 14.38864,11.45217 l 12.45057,1.17459 c 1.74494,8.76316 -4.73708,14.09842 -10.21886,19.85044 7.27412,-3.64197 14.86272,-6.75981 21.25994,-11.86328 l 9.16175,-22.43454 -7.28242,-42.75481 -58.02438,-11.98074 -59.6688,-10.33633 -8.82022,-5.56875 -11.62778,16.77722 -6.1461,0.91361 -16.27889,20.09944 -3.90361,5.06639 z"
         style="opacity:1;fill:#be4120;fill-opacity:1;fill-rule:nonzero;stroke:none;stroke-width:0.2;stroke-linecap:butt;stroke-linejoin:round;stroke-miterlimit:4;stroke-dasharray:none;stroke-dashoffset:0;stroke-opacity:1" />
      <path
         sodipodi:nodetypes="ccccc"
         inkscape:connector-curvature="0"
         id="path4590"
         d="m 947.02178,565.77763 c 18.20928,-5.9398 27.7468,-11.58037 37.56504,-25.33871 l -2.96499,-1.38929 c -3.89925,8.15942 -25.46042,22.30614 -34.40312,22.83104 z"
         style="opacity:1;fill:#f7f6f5;fill-opacity:1;fill-rule:nonzero;stroke:none;stroke-width:0.2;stroke-linecap:butt;stroke-linejoin:round;stroke-miterlimit:4;stroke-dasharray:none;stroke-dashoffset:0;stroke-opacity:0.32156863" />
      <path
         sodipodi:nodetypes="cccc"
         inkscape:connector-curvature="0"
         id="path4604"
         d="m 852.03486,467.7898 c -11.46647,12.36988 -19.3443,28.07206 -29.01645,42.1081 10.79162,-18.65982 21.12544,-37.31963 29.06943,-55.97944 z"
         style="opacity:1;fill:#be4120;fill-opacity:1;fill-rule:nonzero;stroke:none;stroke-width:0.2;stroke-linecap:butt;stroke-linejoin:round;stroke-miterlimit:4;stroke-dasharray:none;stroke-dashoffset:0;stroke-opacity:0.32156863" />
      <path
         sodipodi:nodetypes="ccccc"
         inkscape:connector-curvature="0"
         id="path4584"
         d="m 947.20844,583.64145 c -2.48055,-17.23282 6.08621,-49.70332 -8.07838,-50.82022 -3.38644,-5.82186 -0.85866,-6.3209 -0.16611,-8.47167 3.86397,-1.18483 11.21774,1.97396 15.44833,11.12944 3.86904,16.75084 -3.90576,32.20795 -7.20384,48.16245 z"
         style="opacity:1;fill:#000000;fill-opacity:0.32156863;fill-rule:nonzero;stroke:none;stroke-width:0.2;stroke-linecap:butt;stroke-linejoin:round;stroke-miterlimit:4;stroke-dasharray:none;stroke-dashoffset:0;stroke-opacity:0.32156863" />
      <path
         sodipodi:nodetypes="ccccccc"
         inkscape:connector-curvature="0"
         id="path4724"
         d="m 896.43951,527.00733 c -17.70974,6.46915 2.34831,19.5683 15.97227,30.45361 8.53586,-5.95338 14.61738,-14.3611 35.18994,-8.27778 0.11998,-6.87404 1.87924,-14.51757 -8.40945,-16.50592 l -1.05712,-26.017 -39.46598,-4.11104 z"
         style="opacity:1;fill:#f2b195;fill-opacity:1;fill-rule:nonzero;stroke:none;stroke-width:0.2;stroke-linecap:butt;stroke-linejoin:round;stroke-miterlimit:4;stroke-dasharray:none;stroke-dashoffset:0;stroke-opacity:1" />
      <path
         sodipodi:nodetypes="cccc"
         inkscape:connector-curvature="0"
         id="path4566"
         d="m 947.20844,583.64145 c 3.29914,-10.71763 6.89483,-21.40314 7.72323,-31.34867 -20.70227,-11.1957 -32.46403,-2.66234 -43.69447,5.69673 11.94621,8.63168 22.33454,20.11949 35.97124,25.65194 z"
         style="opacity:1;fill:#b7bebf;fill-opacity:1;fill-rule:nonzero;stroke:none;stroke-width:0.2;stroke-linecap:butt;stroke-linejoin:round;stroke-miterlimit:4;stroke-dasharray:none;stroke-dashoffset:0;stroke-opacity:0.32156863" />
      <path
         sodipodi:nodetypes="cccc"
         inkscape:connector-curvature="0"
         id="path4568"
         d="m 930.22776,547.59984 16.98068,36.04161 c -15.51065,-9.39498 -24.20539,-16.99297 -35.97124,-25.65194 7.70016,-6.65982 13.87248,-9.75469 18.99056,-10.38967 z"
         style="opacity:1;fill:#000000;fill-opacity:0.32156863;fill-rule:nonzero;stroke:none;stroke-width:0.2;stroke-linecap:butt;stroke-linejoin:round;stroke-miterlimit:4;stroke-dasharray:none;stroke-dashoffset:0;stroke-opacity:0.32156863" />
      <path
         sodipodi:nodetypes="cccccccc"
         inkscape:connector-curvature="0"
         id="path4722"
         d="m 1002.9167,421.6929 c -3.88772,20.34803 -4.84646,34.57178 -3.86627,44.74141 l 0.62712,3.67997 -6.79715,1.91544 -2.75424,-10.13794 2.0862,-29.5336 c 1.19228,-6.86618 4.01936,-12.91494 10.51794,-17.12794 z"
         style="opacity:1;fill:#ff8d54;fill-opacity:1;fill-rule:nonzero;stroke:none;stroke-width:0.2;stroke-linecap:butt;stroke-linejoin:round;stroke-miterlimit:4;stroke-dasharray:none;stroke-dashoffset:0;stroke-opacity:1" />
      <path
         sodipodi:nodetypes="cc"
         inkscape:connector-curvature="0"
         id="path4716"
         d="m 968.08701,498.20325 c 19.34895,-8.9674 30.09517,-35.14675 14.38863,-38.52633"
         style="opacity:1;fill:#ffba93;fill-opacity:1;fill-rule:nonzero;stroke:none;stroke-width:0.2;stroke-linecap:butt;stroke-linejoin:round;stroke-miterlimit:4;stroke-dasharray:none;stroke-dashoffset:0;stroke-opacity:1" />
      <path
         sodipodi:nodetypes="cccccc"
         inkscape:connector-curvature="0"
         id="path4676"
         d="m 926.03695,520.75524 c -16.16541,-10.13884 -33.23391,-13.05298 -47.68806,-36.88191 -7.67315,-20.56205 -5.07954,-45.40193 -5.87292,-68.83054 11.53132,-100.73335 132.75073,-57.52891 115.10911,10.80616 4.61383,8.93441 -9.48232,49.6838 -19.49807,72.3543 -9.46671,8.88231 -26.70727,15.43248 -42.05006,22.55199 z"
         style="opacity:1;fill:#ffebdf;fill-opacity:1;fill-rule:nonzero;stroke:none;stroke-width:0.2;stroke-linecap:butt;stroke-linejoin:round;stroke-miterlimit:4;stroke-dasharray:none;stroke-dashoffset:0;stroke-opacity:1" />
      <path
         sodipodi:nodetypes="cccc"
         inkscape:connector-curvature="0"
         id="path4710"
         d="m 955.42564,413.54065 c 7.14628,-1.27151 15.59691,0.1675 23.56321,3.40607 l -0.2993,-3.21143 c -8.99563,-3.39413 -16.52985,-4.11366 -23.26391,-0.19464 z"
         style="opacity:1;fill:#d5ae9d;fill-opacity:1;fill-rule:nonzero;stroke:none;stroke-width:0.2;stroke-linecap:butt;stroke-linejoin:round;stroke-miterlimit:4;stroke-dasharray:none;stroke-dashoffset:0;stroke-opacity:1" />
      <path
         sodipodi:nodetypes="ccc"
         inkscape:connector-curvature="0"
         id="path4693"
         d="m 887.83735,408.04851 c 14.77526,-9.95805 29.20777,-5.9975 35.28902,4.65492 -10.51505,-7.376 -22.47997,-7.98535 -35.28902,-4.65492 z"
         style="display:inline;opacity:1;fill:#d5ae9d;fill-opacity:1;fill-rule:nonzero;stroke:none;stroke-width:0.2;stroke-linecap:butt;stroke-linejoin:round;stroke-miterlimit:4;stroke-dasharray:none;stroke-dashoffset:0;stroke-opacity:1" />
      <path
         sodipodi:nodetypes="cccccccccccccccccccccccc"
         inkscape:connector-curvature="0"
         id="path4688"
         d="m 875.74462,427.12196 c 0.65171,-9.22199 4.04911,-16.97962 7.98739,-24.44877 -0.99785,6.73677 1.5815,11.04682 2.98999,15.28222 1.53562,-11.68331 6.9989,-22.00048 13.59158,-31.92482 -1.89398,11.54809 1.66069,20.91672 6.34274,29.8344 0.8497,-7.48492 0.0426,-15.42169 3.05392,-22.31708 4.4734,13.55842 8.44693,22.61794 11.98075,27.72015 l 5.40308,-29.59947 c 1.77823,9.52031 0.87906,20.74135 11.62836,29.36456 0.2176,-12.40191 -1.94673,-25.45344 2.70155,-36.64698 3.54432,8.74965 1.84021,21.58496 2.0086,33.71053 5.50871,-7.76222 13.23468,-15.30825 15.1403,-28.4249 5.26709,8.31081 7.29567,19.44344 8.69537,29.80589 2.52048,-8.08282 4.80725,-17.45707 5.16471,-26.51706 6.68603,11.22433 7.60375,27.0253 6.46021,45.22144 l 6.57766,-6.46022 2.11425,9.74905 6.57766,-16.79654 -7.04749,-46.04364 -38.52632,-23.9615 -41.1104,-5.63799 -41.58023,36.64698 4.46342,26.7805 z"
         style="opacity:1;fill:#ffba93;fill-opacity:1;fill-rule:nonzero;stroke:none;stroke-width:0.2;stroke-linecap:butt;stroke-linejoin:round;stroke-miterlimit:4;stroke-dasharray:none;stroke-dashoffset:0;stroke-opacity:1" />
      <path
         sodipodi:nodetypes="ccccccccccc"
         inkscape:connector-curvature="0"
         id="path4680"
         d="m 878.34889,483.87333 c -7.42371,-17.65338 -2.15281,-43.78835 -3.08107,-67.09756 4.00558,-7.67825 4.92185,-17.09581 9.75816,-19.78978 l 29.03023,-43.02151 c -14.81809,0.82321 -30.89303,20.49915 -46.51349,33.35814 l -16.20925,46.04365 2.81901,33.47561 0.128,22.15111 -8.72259,4.5946 4.23927,8.02417 z"
         style="opacity:1;fill:#be4120;fill-opacity:1;fill-rule:nonzero;stroke:none;stroke-width:0.2;stroke-linecap:butt;stroke-linejoin:round;stroke-miterlimit:4;stroke-dasharray:none;stroke-dashoffset:0;stroke-opacity:1" />
      <path
         sodipodi:nodetypes="cccccccccccccccccccccccccccccc"
         inkscape:connector-curvature="0"
         id="path4592"
         d="m 980.82394,431.99179 c 4.58406,-3.95718 9.47349,-7.41816 10.63111,-16.94333 1.39795,4.23614 -1.182,16.42805 -2.15945,25.415 3.29053,-8.44409 5.29704,-19.13518 13.6211,-18.77056 -0.4384,-41.43942 -14.6454,-71.35521 -55.73726,-78.7695 -14.15432,-1.73701 -28.52324,-1.54253 -42.98974,-0.46983 -29.90972,10.08626 -50.68677,30.20058 -58.02439,65.07189 3.25155,47.12 -21.42813,71.62529 -38.62792,95.73753 l 30.06771,-33.00891 c -2.55739,12.19024 -6.42894,24.96454 -14.58669,39.64382 10.30484,-18.3523 21.14691,-36.43598 29.06943,-55.97944 l -0.0971,25.41972 c -10.43735,15.51872 -12.51761,25.12473 3.89852,37.83319 -17.08874,-23.0852 -4.53083,-26.12908 -0.23002,-29.11709 l 5.77565,-65.25925 6.57766,-0.23491 c 9.82102,-43.96445 27.34162,-58.53511 46.04365,-68.59564 -19.19232,17.06163 -33.99336,35.35591 -28.18999,59.43388 2.29124,-15.3991 2.72205,-30.83778 25.13608,-45.80873 -9.92033,17.95529 -8.97056,31.32476 -4.8158,43.34211 -2.68823,-13.16613 -1.1805,-25.35022 6.5319,-36.08217 -2.46465,19.74494 0.71808,32.90126 7.64111,41.69389 -8.8372,-30.3029 3.02322,-40.87838 13.62111,-52.65721 -4.6881,15.25004 -7.7384,43.828 3.32223,53.48777 -2.93448,-12.95671 -4.84796,-26.20513 5.14944,-42.85666 14.96991,14.22645 5.31135,25.86043 3.98666,38.37166 11.75457,-17.18285 13.38756,-33.92051 3.82056,-50.16555 10.12239,7.92074 20.76581,18.83287 18.77056,49.66721 1.56563,-12.79577 0.66138,-26.37741 -4.65112,-41.36166 16.01047,15.25464 26.76187,30.20075 16.44499,60.96277 z"
         style="opacity:1;fill:#ff8d54;fill-opacity:1;fill-rule:nonzero;stroke:none;stroke-width:0.2;stroke-linecap:butt;stroke-linejoin:round;stroke-miterlimit:4;stroke-dasharray:none;stroke-dashoffset:0;stroke-opacity:0.32156863" />
      <path
         sodipodi:nodetypes="ccccccc"
         inkscape:connector-curvature="0"
         id="path4672"
         d="m 951.58839,440.29735 c -0.86393,4.89622 -2.84763,8.99259 -0.83056,15.94666 l 7.97334,5.31556 8.47166,-0.49834 7.475,-3.82056 c 0.63925,-3.65372 1.14556,-7.37035 -0.83056,-11.46165 -6.27861,-9.81427 -13.76586,-11.16813 -22.25888,-5.48167 z"
         style="opacity:1;fill:#faeeeb;fill-opacity:1;fill-rule:nonzero;stroke:none;stroke-width:0.2;stroke-linecap:butt;stroke-linejoin:round;stroke-miterlimit:4;stroke-dasharray:none;stroke-dashoffset:0;stroke-opacity:1" />
      <path
         sodipodi:nodetypes="cccccc"
         inkscape:connector-curvature="0"
         id="path4646"
         d="m 887.04079,446.05177 8.69191,8.69191 13.39024,-0.23492 c 5.48572,-3.54007 6.23446,-10.6329 6.8126,-17.85366 -4.90927,-4.2274 -8.0271,-11.07307 -20.67267,-3.99357 -3.90584,2.3348 -10.11671,5.99084 -8.22208,13.39024 z"
         style="opacity:1;fill:#faeeeb;fill-opacity:1;fill-rule:nonzero;stroke:none;stroke-width:0.2;stroke-linecap:butt;stroke-linejoin:round;stroke-miterlimit:4;stroke-dasharray:none;stroke-dashoffset:0;stroke-opacity:0.32156863" />
      <path
         sodipodi:nodetypes="cccc"
         inkscape:connector-curvature="0"
         id="path4616"
         d="m 995.94005,498.76845 c -0.60384,12.88354 6.56835,26.24315 -3.65444,38.53777 l -3.65445,-34.30194 z"
         style="opacity:1;fill:#be4120;fill-opacity:1;fill-rule:nonzero;stroke:none;stroke-width:0.2;stroke-linecap:butt;stroke-linejoin:round;stroke-miterlimit:4;stroke-dasharray:none;stroke-dashoffset:0;stroke-opacity:0.32156863" />
      <path
         sodipodi:nodetypes="cccccccc"
         inkscape:connector-curvature="0"
         id="path4614"
         d="m 992.78393,457.24067 c -1.98783,9.17016 1.64805,8.16917 -8.81384,25.09433 -8.53642,14.6553 -1.50536,58.23384 -7.86259,63.42127 17.94042,-11.99716 15.75803,-30.50464 19.83255,-46.98782 0.38261,13.5129 5.67395,29.07113 -3.65444,38.53777 10.06659,-1.29456 8.99259,-13.30126 7.80719,-25.415 9.7835,4.44071 9.6312,15.3104 12.4584,24.25223 0.1174,-24.43798 -12.81071,-52.49977 -19.76727,-78.90278 z"
         style="opacity:1;fill:#ff8d54;fill-opacity:1;fill-rule:nonzero;stroke:none;stroke-width:0.2;stroke-linecap:butt;stroke-linejoin:round;stroke-miterlimit:4;stroke-dasharray:none;stroke-dashoffset:0;stroke-opacity:0.32156863" />
      <path
         sodipodi:nodetypes="cccc"
         inkscape:connector-curvature="0"
         id="path4582"
         d="m 760.65569,578.30978 c 6.90514,-1.59469 29.10664,8.2829 53.30397,19.65735 l 25.33764,-44.21591 c -20.2427,10.26319 -73.853,7.39627 -78.64161,24.55856 z"
         style="opacity:1;fill:#7c8182;fill-opacity:1;fill-rule:nonzero;stroke:none;stroke-width:0.2;stroke-linecap:butt;stroke-linejoin:round;stroke-miterlimit:4;stroke-dasharray:none;stroke-dashoffset:0;stroke-opacity:0.32156863" />
      <path
         sodipodi:nodetypes="cccc"
         inkscape:connector-curvature="0"
         id="path4564"
         d="m 819.1777,644.3471 c 1.085,6.55751 2.43221,13.09629 0.51849,19.86799 -4.86813,-1.72928 -8.74376,-4.94732 -12.76351,-7.94916 z"
         style="opacity:1;fill:#7c8182;fill-opacity:1;fill-rule:nonzero;stroke:none;stroke-width:0.2;stroke-linecap:butt;stroke-linejoin:round;stroke-miterlimit:4;stroke-dasharray:none;stroke-dashoffset:0;stroke-opacity:0.32156863" />
      <path
         sodipodi:nodetypes="ccccc"
         inkscape:connector-curvature="0"
         id="path4547"
         d="m 810.22768,592.95344 c 11.77968,5.72377 36.29481,26.16701 27.57461,56.9761 l -18.1061,14.28555 c 4.03054,-31.33128 -14.6061,-42.51513 -26.57779,-58.13887 z"
         style="opacity:1;fill:#b7bebf;fill-opacity:1;fill-rule:nonzero;stroke:none;stroke-width:0.2;stroke-linecap:butt;stroke-linejoin:round;stroke-miterlimit:4;stroke-dasharray:none;stroke-dashoffset:0;stroke-opacity:0.32156863" />
      <path
         sodipodi:nodetypes="ccccc"
         inkscape:connector-curvature="0"
         id="path4549"
         d="m 825.92912,659.29737 c -0.52986,-40.30787 -16.78108,-41.31231 -26.83817,-57.80209 l 2.98831,-2.29201 c 14.51505,15.39447 29.04488,30.77869 26.69956,57.84571 z"
         style="opacity:1;fill:#f7f6f5;fill-opacity:1;fill-rule:nonzero;stroke:none;stroke-width:0.2;stroke-linecap:butt;stroke-linejoin:round;stroke-miterlimit:4;stroke-dasharray:none;stroke-dashoffset:0;stroke-opacity:0.32156863" />
      <path
         sodipodi:nodetypes="ccccc"
         inkscape:connector-curvature="0"
         id="path4551"
         d="m 805.10919,596.87931 c 11.93195,15.16949 26.92773,26.02691 27.55911,57.1009 l 2.91452,-2.29953 C 834.93858,627.4113 822.6521,610.27748 808.44453,594.3211 Z"
         style="opacity:1;fill:#f7f6f5;fill-opacity:1;fill-rule:nonzero;stroke:none;stroke-width:0.2;stroke-linecap:butt;stroke-linejoin:round;stroke-miterlimit:4;stroke-dasharray:none;stroke-dashoffset:0;stroke-opacity:0.32156863" />
      <path
         sodipodi:nodetypes="cccc"
         inkscape:connector-curvature="0"
         id="path4553"
         d="m 810.22785,592.95344 c 15.98288,21.21835 30.77986,42.67114 9.46834,71.26165 l 18.1061,-14.28555 c 8.54142,-42.11215 -13.34618,-50.01888 -27.57444,-56.9761 z"
         style="opacity:1;fill:#000000;fill-opacity:0.32156863;fill-rule:nonzero;stroke:none;stroke-width:0.2;stroke-linecap:butt;stroke-linejoin:round;stroke-miterlimit:4;stroke-dasharray:none;stroke-dashoffset:0;stroke-opacity:0.32156863" />
      <path
         sodipodi:nodetypes="cccccc"
         inkscape:connector-curvature="0"
         id="path4543"
         d="m 1004.8804,670.00395 c 11.825,-0.52382 33.202,-17.13901 36.4271,-27.90179 -1.5101,-5.38908 -2.8434,-11.00547 -6.4748,-13.66706 -1.7061,-3.37356 -2.3803,-7.77898 -2.8467,-12.39222 l -26.7767,19.94568 c -4.0525,10.01926 -4.8853,21.80205 -0.3289,34.01539 z"
         style="opacity:1;fill:#b7bebf;fill-opacity:1;fill-rule:nonzero;stroke:none;stroke-width:0.2;stroke-linecap:butt;stroke-linejoin:round;stroke-miterlimit:4;stroke-dasharray:none;stroke-dashoffset:0;stroke-opacity:0.32156863" />
      <path
         sodipodi:nodetypes="ccccc"
         inkscape:connector-curvature="0"
         id="path4545"
         d="m 1026.5541,621.79879 c 0.8259,11.76055 -2.7531,27.81243 9.4238,28.51292 -11.0053,11.99461 -21.257,17.58895 -31.0975,19.69224 -10.27131,-11.00996 -35.78373,-21.5376 0.3287,-34.01539 z"
         style="opacity:1;fill:#000000;fill-opacity:0.32156863;fill-rule:nonzero;stroke:none;stroke-width:0.2;stroke-linecap:butt;stroke-linejoin:round;stroke-miterlimit:4;stroke-dasharray:none;stroke-dashoffset:0;stroke-opacity:0.32156863" />
      <path
         sodipodi:nodetypes="cccccccccccccccc"
         inkscape:connector-curvature="0"
         id="path4537"
         d="m 859.51419,720.6206 c 35.80467,27.64467 131.97106,30.54628 152.97201,-11.57976 -0.2324,-12.2124 -3.0723,-23.26596 -7.2824,-33.71052 -0.1113,-13.29474 -3.8589,-32.40773 0.01,-39.34176 10.8334,-0.92534 18.4507,-11.49873 26.7769,-19.94568 1.4695,-13.7845 3.1209,-27.61177 -17.4417,-36.21222 -3.321,-14.44576 -6.9026,-39.66025 -23.58775,-30.97972 -26.48009,57.67233 -87.62086,34.65914 -151.65942,4.90028 -8.80055,4.97553 -15.53775,11.16479 -19.01973,19.2689 -5.86123,6.12124 -14.2599,11.71385 -10.04972,19.93332 14.01538,8.04973 33.84011,24.03821 27.57444,56.9761 l 10.13278,-0.83055 9.46832,-14.28555 3.44421,0.93345 c 4.5729,15.31032 13.0631,29.83717 11.68709,46.33728 2.91192,14.57214 -7.53448,25.96375 -13.02033,38.53643 z"
         style="opacity:1;fill:#f9f9f8;fill-opacity:1;fill-rule:nonzero;stroke:none;stroke-width:0.2;stroke-linecap:butt;stroke-linejoin:round;stroke-miterlimit:4;stroke-dasharray:none;stroke-dashoffset:0;stroke-opacity:0.32156863" />
      <path
         sodipodi:nodetypes="cccccccccccc"
         inkscape:connector-curvature="0"
         id="path4485"
         d="m 887.13729,704.41398 c 28.38266,24.64757 69.01599,-42.28534 72.08381,-37.5383 l 29.64439,-15.57663 c 13.97491,-7.24062 24.16301,-14.84522 8.35117,-24.94883 -7.62914,-5.4672 -14.92942,-1.06816 -22.11816,6.67699 l -26.47741,2.96679 c -16.46463,-1.16444 -25.02513,-10.17997 -38.80964,-3.9214 -15.96072,6.42521 -20.16045,14.16404 -21.83098,23.75965 9.79811,12.54124 19.72332,18.21904 29.8344,13.86008 10.5854,-3.42677 19.7106,-9.35676 28.77727,-15.38704 3.18597,8.13169 -18.25829,53.89486 -52.81041,42.96592 -8.5797,-3.14331 -9.78504,0.11379 -6.64444,7.14277 z"
         style="opacity:1;fill:#c5d0dc;fill-opacity:1;fill-rule:nonzero;stroke:none;stroke-width:0.2;stroke-linecap:butt;stroke-linejoin:round;stroke-miterlimit:4;stroke-dasharray:none;stroke-dashoffset:0;stroke-opacity:1" />
      <path
         sodipodi:nodetypes="ccccccccccccccccccc"
         inkscape:connector-curvature="0"
         id="path4354"
         d="m 799.18201,852.22249 c 2.98528,16.11431 11.01124,31.72454 20.20282,47.21823 l 10.33632,-9.39667 c 14.09504,14.65156 35.46955,28.29907 67.71502,40.44712 l 4.485,-8.97 c 21.53907,-1.30114 43.07814,-2.10517 64.61721,-9.46833 l 5.14944,7.30889 c 17.36814,-7.83734 35.60698,-15.43722 46.34498,-25.08278 3.5183,5.82546 10.0288,5.06823 16.6111,4.15278 10.0146,-5.66158 21.4255,-9.78711 28.5711,-18.60445 l -7.3089,-10.13277 6.9767,-5.48167 c -14.4796,-45.41809 -38.879,-81.81826 -67.07564,-114.76634 l -1.05713,-21.49487 c -36.0757,11.54116 -73.48413,19.08419 -119.45506,0.93967 l -0.46983,22.43453 -7.12285,-0.23464 c -13.12324,11.49091 -25.00833,40.31614 -37.51131,60.49073 -10.33632,15.71416 -20.67265,27.49036 -31.00897,40.64057 z"
         style="opacity:1;fill:#b7bebf;fill-opacity:1;fill-rule:nonzero;stroke:none;stroke-width:1;stroke-linecap:round;stroke-linejoin:round;stroke-miterlimit:4;stroke-dasharray:none;stroke-dashoffset:0;stroke-opacity:0.32156863" />
      <path
         sodipodi:nodetypes="ccccc"
         inkscape:connector-curvature="0"
         id="path4356"
         d="m 875.29497,728.8913 -0.3138,14.98381 c 58.6798,22.7783 46.66972,-4.66091 120.57819,0.53287 l -0.80933,-16.45635 c -38.98835,11.43533 -78.27957,18.81211 -119.45506,0.93967 z"
         style="opacity:1;fill:#000000;fill-opacity:0.32156863;fill-rule:nonzero;stroke:none;stroke-width:1;stroke-linecap:round;stroke-linejoin:round;stroke-miterlimit:4;stroke-dasharray:none;stroke-dashoffset:0;stroke-opacity:1" />
      <path
         sodipodi:nodetypes="cccccccccccccccccccc"
         inkscape:connector-curvature="0"
         id="path4360"
         d="m 811.92647,836.33608 c 5.37365,12.20094 12.52924,23.09515 21.22471,32.86009 l 7.475,1.99334 c 15.75482,13.37724 33.49031,23.7835 54.87161,28.72104 25.47904,1.47093 47.56624,-0.89078 67.73507,-12.85153 l 7.90806,8.27066 c 15.09875,-6.70636 30.30188,-13.18661 43.57698,-23.84403 l 8.1047,3.87612 c 10.3409,-4.26708 27.7426,-14.45223 36.5293,-21.51705 l -2.7953,-7.38157 c -9.1236,6.27013 -27.1089,18.64749 -38.08,23.37808 l -7.7522,-4.2285 c -12.1325,8.98127 -25.76982,16.26959 -40.40569,22.43453 l -9.2792,-8.57445 c -18.94661,9.74486 -40.62352,12.2089 -63.31001,11.98074 l -0.5873,0.23492 c -21.61545,-5.35536 -38.46525,-16.66776 -53.85825,-29.80118 l -5.06638,0.49833 c -9.27,-8.63893 -15.58659,-20.41114 -21.37456,-32.2763 z"
         style="opacity:1;fill:#f7f6f5;fill-opacity:1;fill-rule:nonzero;stroke:none;stroke-width:0.2;stroke-linecap:round;stroke-linejoin:round;stroke-miterlimit:4;stroke-dasharray:none;stroke-dashoffset:0;stroke-opacity:1" />
      <path
         sodipodi:nodetypes="ccccccccccccccccccc"
         inkscape:connector-curvature="0"
         id="path4364"
         d="m 809.62619,839.1997 c 5.64577,11.24335 11.42391,22.44255 21.62193,32.16849 l 8.57444,2.93645 c 17.06901,12.34269 34.44068,24.10533 55.2054,29.36457 23.6814,-1.59916 45.38561,-0.32855 68.22066,-12.08394 l 7.84019,7.70949 c 15.00668,-6.46764 30.17669,-12.12138 45.61509,-24.20164 l 6.9767,4.23583 c 11.5837,-4.43689 27.8855,-17.0733 36.7475,-22.46218 l 2.4547,7.34607 c -8.8138,6.99432 -26.2971,17.53827 -36.8766,21.92667 l -7.6412,-4.31889 c -13.6241,11.03799 -29.19068,16.73439 -44.51773,23.08944 l -9.30222,-6.1461 c -19.86587,9.84158 -45.2425,10.16456 -69.76666,11.95999 -22.0541,-5.54638 -39.96366,-17.60564 -57.7236,-29.89999 l -8.80389,-2.90695 c -10.28715,-10.27808 -16.692,-22.03514 -22.38067,-34.06503 z"
         style="opacity:1;fill:#f7f6f5;fill-opacity:1;fill-rule:nonzero;stroke:none;stroke-width:0.2;stroke-linecap:round;stroke-linejoin:round;stroke-miterlimit:4;stroke-dasharray:none;stroke-dashoffset:0;stroke-opacity:1" />
      <path
         sodipodi:nodetypes="cccc"
         inkscape:connector-curvature="0"
         id="path4366"
         d="m 829.72115,890.04405 c 7.94368,-31.75248 20.66044,-60.03362 33.35815,-88.32862 -8.07827,33.99529 -29.88118,75.00541 -20.28103,99.96508 z"
         style="opacity:1;fill:#000000;fill-opacity:0.32156863;fill-rule:nonzero;stroke:none;stroke-width:0.2;stroke-linecap:round;stroke-linejoin:round;stroke-miterlimit:4;stroke-dasharray:none;stroke-dashoffset:0;stroke-opacity:1" />
      <path
         sodipodi:nodetypes="cccc"
         inkscape:connector-curvature="0"
         id="path4368"
         d="m 824.30116,844.28556 c 4.07366,-12.71571 8.24393,-25.45415 8.65226,-37.30743 l -16.11041,23.13119 c 2.06466,4.86588 4.09941,9.74173 7.45815,14.17624 z"
         style="opacity:1;fill:#000000;fill-opacity:0.32156863;fill-rule:nonzero;stroke:none;stroke-width:0.2;stroke-linecap:round;stroke-linejoin:round;stroke-miterlimit:4;stroke-dasharray:none;stroke-dashoffset:0;stroke-opacity:1" />
      <path
         sodipodi:nodetypes="cccc"
         inkscape:connector-curvature="0"
         id="path4370"
         d="m 1055.9061,869.69451 c -9.1891,-12.94204 -15.7048,-30.85274 -23.2171,-45.19218 9.1145,13.54298 19.2974,26.69858 27.3,41.90935 z"
         style="opacity:1;fill:#000000;fill-opacity:0.32156863;fill-rule:nonzero;stroke:none;stroke-width:0.2;stroke-linecap:round;stroke-linejoin:round;stroke-miterlimit:4;stroke-dasharray:none;stroke-dashoffset:0;stroke-opacity:1" />
      <path
         sodipodi:nodetypes="cccc"
         inkscape:connector-curvature="0"
         id="path4372"
         d="m 999.10129,753.33278 c 7.68591,15.39612 14.18491,31.74184 20.31501,48.38265 -3.1031,-11.69221 -4.8517,-22.93291 -9.6206,-35.18035 z"
         style="opacity:1;fill:#000000;fill-opacity:0.32156863;fill-rule:nonzero;stroke:none;stroke-width:0.2;stroke-linecap:round;stroke-linejoin:round;stroke-miterlimit:4;stroke-dasharray:none;stroke-dashoffset:0;stroke-opacity:1" />
      <path
         sodipodi:nodetypes="cccc"
         inkscape:connector-curvature="0"
         id="path4374"
         d="m 871.02451,779.08091 c 4.00634,-7.88186 6.14205,-16.59553 16.17507,-22.19139 l -7.36493,-2.34414 c -8.02943,7.55792 -7.86855,15.68891 -8.81014,24.53553 z"
         style="opacity:1;fill:#000000;fill-opacity:0.32156863;fill-rule:nonzero;stroke:none;stroke-width:0.2;stroke-linecap:round;stroke-linejoin:round;stroke-miterlimit:4;stroke-dasharray:none;stroke-dashoffset:0;stroke-opacity:1" />
      <path
         sodipodi:nodetypes="ccccccccccc"
         inkscape:connector-curvature="0"
         id="path4376"
         d="m 906.18649,761.28042 c -6.27195,14.51817 -9.27575,32.09892 -10.6887,51.47609 0.12247,39.09527 -1.03944,77.82357 1.93838,117.73466 l 4.485,-8.97 8.16021,-0.48336 c -5.82351,-17.15968 -2.71288,-39.10549 -0.0188,-60.82816 9.4098,-18.02894 23.1536,-29.81691 38.05648,-39.93581 -12.68615,0.77526 -25.37232,4.38866 -38.05848,14.86956 l -7.80722,-8.80389 c -5.14719,-6.5384 -4.527,-50.91445 11.50111,-63.89489 z"
         style="opacity:1;fill:#000000;fill-opacity:0.32156863;fill-rule:nonzero;stroke:none;stroke-width:0.2;stroke-linecap:round;stroke-linejoin:round;stroke-miterlimit:4;stroke-dasharray:none;stroke-dashoffset:0;stroke-opacity:1" />
      <path
         sodipodi:nodetypes="ccccccccccccc"
         inkscape:connector-curvature="0"
         id="path4378"
         d="m 944.69895,763.61832 c -1.01259,18.12485 -3.95056,33.42085 8.21833,57.07341 9.65539,5.01776 19.44057,9.90572 33.38832,10.63111 -2.28554,7.21341 -14.08863,12.90402 -23.75389,18.93668 -3.51945,15.50614 2.70207,34.11169 12.90727,53.98477 3.45593,3.67751 7.45029,6.27819 11.84543,8.07728 l -15.61659,7.04016 -5.14944,-7.30889 c 3.92446,0.1702 5.49906,-3.68793 7.30889,-7.14278 -8.99733,-14.07527 -15.94137,-30.08304 -19.62034,-49.16383 -3.17371,-21.29079 -6.37064,-42.40163 -11.276,-50.27213 l -3.28883,-41.69769 z"
         style="opacity:1;fill:#000000;fill-opacity:0.32156863;fill-rule:nonzero;stroke:none;stroke-width:0.2;stroke-linecap:round;stroke-linejoin:round;stroke-miterlimit:4;stroke-dasharray:none;stroke-dashoffset:0;stroke-opacity:1" />
      <path
         sodipodi:nodetypes="cccccccccc"
         inkscape:connector-curvature="0"
         id="path4380"
         d="m 976.34902,758.30782 c 4.65949,16.47268 7.41859,32.62236 14.44159,49.09503 16.40439,15.36002 17.67709,29.55608 18.10609,43.68721 l 17.1095,35.04945 c 6.7541,0.66286 10.335,5.47838 14.9545,8.93472 l -6.3168,3.3575 c -8.1576,2.41102 -12.9704,-0.0221 -16.6111,-4.15278 2.8695,-2.14409 3.9802,-5.91171 4.8412,-9.90976 1.1966,-0.65744 -28.79953,-40.05445 -49.61884,-125.17366 z"
         style="opacity:1;fill:#000000;fill-opacity:0.32156863;fill-rule:nonzero;stroke:none;stroke-width:0.2;stroke-linecap:round;stroke-linejoin:round;stroke-miterlimit:4;stroke-dasharray:none;stroke-dashoffset:0;stroke-opacity:1" />
      <path
         sodipodi:nodetypes="cc"
         inkscape:connector-curvature="0"
         id="path4382"
         d="m 874.82514,751.32583 c 28.79768,11.17772 77.938,19.16182 120.98202,-1.87933"
         style="opacity:1;fill:none;fill-opacity:0;fill-rule:nonzero;stroke:#000000;stroke-width:2.63106537;stroke-linecap:butt;stroke-linejoin:round;stroke-miterlimit:4;stroke-dasharray:none;stroke-dashoffset:0;stroke-opacity:0.32156863" />
      <path
         sodipodi:nodetypes="ccccccc"
         inkscape:connector-curvature="0"
         id="path4407"
         d="m 960.32408,683.32826 c 13.2664,-10.97814 24.49777,-27.5009 34.53274,-15.62195 -11.91136,-41.15452 -20.28822,-17.57893 -37.57678,-70.46353 -5.25903,-4.87106 -10.7244,-6.09702 -16.64568,0.73128 -0.17524,7.29716 -0.43073,14.47393 2.44319,26.34483 4.52375,10.80092 10.04206,20.27578 16.44499,28.57111 -0.36728,10.46333 -0.67143,20.89507 0.80154,30.43826 z"
         style="display:inline;opacity:1;fill:#fa5676;fill-opacity:1;fill-rule:nonzero;stroke:none;stroke-width:0.2;stroke-linecap:butt;stroke-linejoin:round;stroke-miterlimit:4;stroke-dasharray:none;stroke-dashoffset:0;stroke-opacity:0.32156863" />
      <path
         sodipodi:nodetypes="cccccc"
         inkscape:connector-curvature="0"
         id="path4475"
         d="m 952.77012,619.14402 3.76754,10.49069 12.36333,-4.77075 -2.22541,-5.50695 -10.33251,-1.70512 z"
         style="opacity:1;fill:#dc3a4f;fill-opacity:1;fill-rule:nonzero;stroke:none;stroke-width:0.2;stroke-linecap:butt;stroke-linejoin:round;stroke-miterlimit:4;stroke-dasharray:none;stroke-dashoffset:0;stroke-opacity:0.32156863" />
      <path
         sodipodi:nodetypes="cccc"
         inkscape:connector-curvature="0"
         id="path4411"
         d="m 940.99467,612.68427 c 2.29724,-6.55743 4.41669,-13.19043 12.81049,-17.15681 -3.44117,-2.45723 -7.47107,-2.88431 -13.1708,2.4466 -0.24053,5.70482 -0.1038,10.57132 0.36031,14.71021 z"
         style="display:inline;opacity:1;fill:#dc3a4f;fill-opacity:1;fill-rule:nonzero;stroke:none;stroke-width:0.2;stroke-linecap:butt;stroke-linejoin:round;stroke-miterlimit:4;stroke-dasharray:none;stroke-dashoffset:0;stroke-opacity:0.32156863" />
      <path
         sodipodi:nodetypes="cccc"
         inkscape:connector-curvature="0"
         id="path4513"
         d="m 947.20844,583.64145 c 32.64386,10.54948 31.62216,10.30865 31.87134,4.82699 17.65991,-6.10007 12.78767,-44.47026 11.87694,-39.6175 -1.15219,15.02136 -47.57382,33.1919 -43.74828,34.79051 z"
         style="opacity:1;fill:#fa5676;fill-opacity:1;fill-rule:nonzero;stroke:none;stroke-width:0.2;stroke-linecap:butt;stroke-linejoin:round;stroke-miterlimit:4;stroke-dasharray:none;stroke-dashoffset:0;stroke-opacity:0.32156863" />
      <path
         sodipodi:nodetypes="cccc"
         inkscape:connector-curvature="0"
         id="path4515"
         d="m 947.20844,583.64145 c -29.23522,-2.7296 -62.6958,-11.9973 -90.36733,-21.91992 9.01654,12.51394 21.10985,33.66137 33.36368,39.40644 20.25439,-4.81537 40.05046,-9.89259 57.00365,-17.48652 z"
         style="opacity:1;fill:#fa5676;fill-opacity:1;fill-rule:nonzero;stroke:none;stroke-width:0.2;stroke-linecap:butt;stroke-linejoin:round;stroke-miterlimit:4;stroke-dasharray:none;stroke-dashoffset:0;stroke-opacity:0.32156863" />
      <path
         sodipodi:nodetypes="ccccccccc"
         inkscape:connector-curvature="0"
         id="path4574"
         d="m 947.20844,583.64145 c -34.44092,-21.05467 -50.76217,-43.83433 -65.10089,-53.25464 -13.51487,6.98265 -28.19988,12.3271 -43.9294,16.20924 -16.52726,15.00612 -38.9636,14.27928 -61.0783,16.91399 -14.28962,2.44763 -20.78842,8.79065 -30.30423,13.62517 l 13.86007,1.17457 c 5.16326,-9.48656 26.89092,-12.74112 42.28498,-12.45057 13.8083,-0.65715 25.15597,-6.23555 36.35663,-12.10799 47.29686,22.67117 78.49741,27.28307 107.91114,29.89023 z"
         style="opacity:1;fill:#b7bebf;fill-opacity:1;fill-rule:nonzero;stroke:none;stroke-width:0.2;stroke-linecap:butt;stroke-linejoin:round;stroke-miterlimit:4;stroke-dasharray:none;stroke-dashoffset:0;stroke-opacity:0.32156863" />
      <path
         sodipodi:nodetypes="ccccc"
         inkscape:connector-curvature="0"
         id="path4403"
         d="m 940.63436,597.97406 c 5.04277,-3.31781 8.43326,-5.45589 16.64568,-0.73128 l -2.98999,-13.0397 c -5.00723,-1.1382 -9.9501,-1.05869 -16.94332,2.65778 z"
         style="display:inline;opacity:1;fill:#b7bebf;fill-opacity:1;fill-rule:nonzero;stroke:none;stroke-width:0.2;stroke-linecap:butt;stroke-linejoin:round;stroke-miterlimit:4;stroke-dasharray:none;stroke-dashoffset:0;stroke-opacity:0.32156863" />
      <path
         sodipodi:nodetypes="ccccc"
         inkscape:connector-curvature="0"
         id="path4405"
         d="m 945.66493,595.52758 -2.52944,-11.09234 c -2.04114,0.58544 -3.98242,1.37059 -5.78876,2.42562 l 3.28763,11.1132 c 2.25343,-1.43977 2.54788,-1.61808 5.03057,-2.44648 z"
         style="display:inline;opacity:1;fill:#7c8182;fill-opacity:1;fill-rule:nonzero;stroke:none;stroke-width:0.2;stroke-linecap:butt;stroke-linejoin:round;stroke-miterlimit:4;stroke-dasharray:none;stroke-dashoffset:0;stroke-opacity:0.32156863" />
      <path
         sodipodi:nodetypes="ccc"
         inkscape:connector-curvature="0"
         id="path4415"
         d="m 960.32408,683.32826 c 14.32468,-11.98351 24.86627,-27.32825 34.53274,-15.62195 -13.78337,-20.02277 -11.71701,-7.42565 -34.53274,15.62195 z"
         style="display:inline;opacity:1;fill:#dc3a4f;fill-opacity:1;fill-rule:nonzero;stroke:none;stroke-width:0.2;stroke-linecap:butt;stroke-linejoin:round;stroke-miterlimit:4;stroke-dasharray:none;stroke-dashoffset:0;stroke-opacity:0.32156863" />
      <path
         sodipodi:nodetypes="cccc"
         inkscape:connector-curvature="0"
         id="path4417"
         d="m 972.13342,629.97254 c 1.51001,11.1508 0.92214,21.1451 -1.00317,29.15931 9.33253,0.53708 4.74369,-21.75674 12.43056,-16.35956 -2.27207,-3.23921 -7.99779,-9.35008 -11.42739,-12.79975 z"
         style="display:inline;opacity:1;fill:#dc3a4f;fill-opacity:1;fill-rule:nonzero;stroke:none;stroke-width:0.2;stroke-linecap:butt;stroke-linejoin:round;stroke-miterlimit:4;stroke-dasharray:none;stroke-dashoffset:0;stroke-opacity:0.32156863" />
      <path
         sodipodi:nodetypes="ccccc"
         inkscape:connector-curvature="0"
         id="path4471"
         d="m 954.07685,616.85931 12.32816,-5.84497 5.12923,10.05957 -13.16457,4.95929 z"
         style="opacity:1;fill:#fac258;fill-opacity:1;fill-rule:nonzero;stroke:none;stroke-width:0.2;stroke-linecap:butt;stroke-linejoin:round;stroke-miterlimit:4;stroke-dasharray:none;stroke-dashoffset:0;stroke-opacity:0.32156863" />
      <path
         sodipodi:nodetypes="cccc"
         inkscape:connector-curvature="0"
         id="path4477"
         d="m 966.80999,735.63284 c 8.60859,-5.72465 17.2172,-11.30238 25.8258,-17.31278 l 2.11424,9.63157 c -8.98362,3.37799 -18.34165,5.82761 -27.94004,7.68121 z"
         style="opacity:1;fill:#f2b195;fill-opacity:1;fill-rule:nonzero;stroke:none;stroke-width:0.2;stroke-linecap:butt;stroke-linejoin:round;stroke-miterlimit:4;stroke-dasharray:none;stroke-dashoffset:0;stroke-opacity:0.32156863" />
      <path
         sodipodi:nodetypes="ccccc"
         inkscape:connector-curvature="0"
         id="path4481"
         d="m 966.80999,735.63284 20.3656,-13.55309 c 2.08648,-13.58597 2.35395,-27.53572 2.95057,-41.41966 -13.75795,22.9501 -29.54992,44.07657 -52.32635,58.94112 9.57555,-0.65647 19.60724,-1.35445 29.01018,-3.96837 z"
         style="opacity:1;fill:#c6d0dc;fill-opacity:1;fill-rule:nonzero;stroke:none;stroke-width:0.2;stroke-linecap:butt;stroke-linejoin:round;stroke-miterlimit:4;stroke-dasharray:none;stroke-dashoffset:0;stroke-opacity:0.32156863" />
      <path
         sodipodi:nodetypes="cccc"
         inkscape:connector-curvature="0"
         id="path4483"
         d="m 992.63579,718.32006 2.11424,9.63157 c 7.25667,-5.6313 14.73667,-11.15091 17.73617,-18.91079 -6.828,2.58622 -14.44323,3.28303 -19.85041,9.27922 z"
         style="opacity:1;fill:#c6d0dc;fill-opacity:1;fill-rule:nonzero;stroke:none;stroke-width:0.2;stroke-linecap:butt;stroke-linejoin:round;stroke-miterlimit:4;stroke-dasharray:none;stroke-dashoffset:0;stroke-opacity:0.32156863" />
      <path
         sodipodi:nodetypes="ccccccc"
         inkscape:connector-curvature="0"
         id="path4489"
         d="m 860.8476,635.74689 c 8.17032,-1.0486 15.35424,2.24287 22.43453,5.99037 -5.48907,-0.0524 -10.83643,0.13827 -14.79974,2.70153 6.65285,12.90182 10.31941,25.98584 12.21566,41.34532 l -5.40308,-3.28884 c -1.84877,-3.53186 -2.33758,-7.54942 -1.9968,-11.86327 -6.01787,-21.71386 -9.74336,-31.04885 -12.45057,-34.88511 z"
         style="opacity:1;fill:#c5d0dc;fill-opacity:1;fill-rule:nonzero;stroke:none;stroke-width:0.2;stroke-linecap:butt;stroke-linejoin:round;stroke-miterlimit:4;stroke-dasharray:none;stroke-dashoffset:0;stroke-opacity:0.32156863" />
      <path
         sodipodi:nodetypes="ccccccccc"
         inkscape:connector-curvature="0"
         id="path4491"
         d="m 810.22785,592.95344 c 17.98586,6.07299 31.00827,21.9788 40.86333,38.37165 8.78139,-13.15081 15.20487,-22.6511 18.60443,-32.72388 0.92211,1.79304 9.29276,9.54954 8.8039,16.94333 -2.85778,9.15507 -10.53127,14.45756 -17.65191,20.20235 l -3.44421,-0.93345 -9.46832,14.28555 -10.13278,0.83055 c 4.757,-25.87374 -8.39369,-45.99879 -27.57444,-56.9761 z"
         style="opacity:1;fill:#c5d0dc;fill-opacity:1;fill-rule:nonzero;stroke:none;stroke-width:0.2;stroke-linecap:butt;stroke-linejoin:round;stroke-miterlimit:4;stroke-dasharray:none;stroke-dashoffset:0;stroke-opacity:0.32156863" />
      <path
         sodipodi:nodetypes="cccc"
         inkscape:connector-curvature="0"
         id="path4493"
         d="m 839.2973,553.75122 c 20.73057,10.44593 27.22299,26.94308 30.39831,44.84999 1.99486,-9.39874 0.70467,-19.61874 -6.1461,-31.22889 -7.35012,-7.23153 -15.57643,-11.25035 -24.25221,-13.6211 z"
         style="opacity:1;fill:#c5d0dc;fill-opacity:1;fill-rule:nonzero;stroke:none;stroke-width:0.2;stroke-linecap:butt;stroke-linejoin:round;stroke-miterlimit:4;stroke-dasharray:none;stroke-dashoffset:0;stroke-opacity:0.32156863" />
      <path
         sodipodi:nodetypes="ccccc"
         inkscape:connector-curvature="0"
         id="path4495"
         d="m 816.62455,588.76357 -0.4111,-6.81258 c 4.54725,-0.24156 8.99316,-0.36151 12.45058,0.70475 7.29125,9.22537 19.45794,11.78763 33.35815,11.98075 -15.80379,2.93286 -31.13858,2.44881 -45.39763,-5.87292 z"
         style="opacity:1;fill:#c5d0dc;fill-opacity:1;fill-rule:nonzero;stroke:none;stroke-width:0.2;stroke-linecap:butt;stroke-linejoin:round;stroke-miterlimit:4;stroke-dasharray:none;stroke-dashoffset:0;stroke-opacity:0.32156863" />
      <path
         sodipodi:nodetypes="cccc"
         inkscape:connector-curvature="0"
         id="path4497"
         d="m 817.70285,577.83733 c 6.76624,-1.07979 13.52926,-6.65261 18.10611,-13.20583 -3.88386,2.46205 -11.28829,8.91712 -15.53138,8.38862 z"
         style="opacity:1;fill:#c5d0dc;fill-opacity:1;fill-rule:nonzero;stroke:none;stroke-width:0.2;stroke-linecap:butt;stroke-linejoin:round;stroke-miterlimit:4;stroke-dasharray:none;stroke-dashoffset:0;stroke-opacity:0.32156863" />
      <path
         sodipodi:nodetypes="ccccccccccccccccccccc"
         inkscape:connector-curvature="0"
         id="path4527"
         d="m 805.90896,621.02621 c 1.08345,-26.30051 4.35637,-49.97367 12.06637,-68.32233 9.67374,-7.17728 21.76671,-15.67413 27.0154,-20.43774 0.78318,-5.99199 -1.4254,-14.99821 3.05391,-17.26637 6.19328,-12.44026 14.87403,-21.28749 23.84403,-29.71694 -0.23689,-2.17149 -0.3368,-4.44572 -4.22849,-3.87612 -8.32614,5.57773 -15.86907,12.59134 -22.31708,21.61232 l -5.05069,-5.75546 c 4.68801,-9.54173 11.45079,-18.25357 19.26314,-26.54557 -0.20292,-3.20976 -2.0682,-4.4247 -5.40307,-3.87612 -7.87052,8.85782 -13.85475,17.76415 -19.49808,27.72016 l -4.46342,0.23491 c 0.0484,-3.82786 -5.0054,-3.829 -11.15924,-3.00516 -4.22758,2.31583 -9.10258,4.30796 -10.96333,7.80721 l -1.66111,11.46167 c -4.60647,4.09312 -6.45238,9.29046 -7.97334,14.61778 l -0.83055,19.26888 2.49167,3.82056 c -8.81699,26.87745 -22.14526,55.25866 -36.21222,83.8861 -2.17459,17.71003 0.11366,31.64382 3.65444,44.51777 36.2732,-16.13468 42.1522,-35.60936 38.37166,-56.14555 z"
         style="opacity:1;fill:#ffebdf;fill-opacity:1;fill-rule:nonzero;stroke:none;stroke-width:0.2;stroke-linecap:butt;stroke-linejoin:round;stroke-miterlimit:4;stroke-dasharray:none;stroke-dashoffset:0;stroke-opacity:0.32156863" />
      <path
         sodipodi:nodetypes="ccccc"
         inkscape:connector-curvature="0"
         id="path4499"
         d="m 987.30228,574.84733 c 6.81838,1.90516 11.6014,7.54179 15.78052,14.28555 -2.1988,-9.52705 -2.2184,-18.43146 -1.3289,-27.07611 6.6291,21.08795 4.3214,48.8758 3.4554,73.93179 0.7908,-24.3885 -1.9094,-49.0615 -17.90702,-61.14123 z"
         style="opacity:1;fill:#c5d0dc;fill-opacity:1;fill-rule:nonzero;stroke:none;stroke-width:0.2;stroke-linecap:butt;stroke-linejoin:round;stroke-miterlimit:4;stroke-dasharray:none;stroke-dashoffset:0;stroke-opacity:0.32156863" />
      <path
         sodipodi:nodetypes="cccc"
         inkscape:connector-curvature="0"
         id="path4501"
         d="m 1014.5445,579.83066 c 7.3354,22.77465 -2.9167,33.1061 -8.9837,47.14738 l -0.3515,9.01052 c 22.4508,-26.15997 13.3916,-53.34403 9.3352,-56.1579 z"
         style="opacity:1;fill:#c5d0dc;fill-opacity:1;fill-rule:nonzero;stroke:none;stroke-width:0.2;stroke-linecap:butt;stroke-linejoin:round;stroke-miterlimit:4;stroke-dasharray:none;stroke-dashoffset:0;stroke-opacity:0.32156863" />
      <path
         sodipodi:nodetypes="cccc"
         inkscape:connector-curvature="0"
         id="path4503"
         d="m 1012.6037,633.86754 c 2.9205,-6.85021 6.4728,-12.85911 11.8633,-15.38702 l 2.0871,3.31827 c -3.7371,6.00913 -9.4021,9.39167 -13.9504,12.06875 z"
         style="opacity:1;fill:#c5d0dc;fill-opacity:1;fill-rule:nonzero;stroke:none;stroke-width:0.2;stroke-linecap:butt;stroke-linejoin:round;stroke-miterlimit:4;stroke-dasharray:none;stroke-dashoffset:0;stroke-opacity:0.32156863" />
      <path
         sodipodi:nodetypes="cccccc"
         inkscape:connector-curvature="0"
         id="path4505"
         d="m 872.26019,582.15624 c 5.77665,7.86319 7.53632,16.49971 20.4186,21.99437 16.14107,-5.55175 31.82764,-8.71801 46.63983,-10.72606 l -1.76098,-5.95264 c -9.2723,3.97761 -26.17648,8.10187 -42.77925,11.46153 -12.46378,-0.25174 -15.99655,-10.1872 -22.5182,-16.7772 z"
         style="opacity:1;fill:#c5d0dc;fill-opacity:1;fill-rule:nonzero;stroke:none;stroke-width:0.2;stroke-linecap:butt;stroke-linejoin:round;stroke-miterlimit:4;stroke-dasharray:none;stroke-dashoffset:0;stroke-opacity:0.32156863" />
      <path
         sodipodi:nodetypes="ccccc"
         inkscape:connector-curvature="0"
         id="path4507"
         d="m 992.11949,552.58845 c -3.65508,12.39052 -0.2209,29.06738 -13.03971,35.87999 -8.39448,0.58951 -16.61459,-1.15361 -24.34629,-2.33149 7.23022,3.01569 14.69279,7.22769 24.09711,7.81315 19.20261,-11.48921 13.49987,-27.10803 13.28889,-41.36165 z"
         style="opacity:1;fill:#c5d0dc;fill-opacity:1;fill-rule:nonzero;stroke:none;stroke-width:0.2;stroke-linecap:butt;stroke-linejoin:round;stroke-miterlimit:4;stroke-dasharray:none;stroke-dashoffset:0;stroke-opacity:0.32156863" />
      <path
         sodipodi:nodetypes="cccc"
         inkscape:connector-curvature="0"
         id="path4509"
         d="m 954.27671,578.52365 c 9.10355,-4.04187 33.32386,-20.6128 36.68001,-29.67271 0.99055,9.9954 -8.95187,23.77836 -16.17459,29.45884 z"
         style="opacity:1;fill:#dc3a4f;fill-opacity:1;fill-rule:nonzero;stroke:none;stroke-width:0.2;stroke-linecap:butt;stroke-linejoin:round;stroke-miterlimit:4;stroke-dasharray:none;stroke-dashoffset:0;stroke-opacity:0.32156863" />
      <path
         sodipodi:nodetypes="ccccc"
         inkscape:connector-curvature="0"
         id="path4511"
         d="m 879.17109,578.77962 c 11.77422,3.2207 24.66041,12.04094 46.70247,2.35347 l 17.79134,2.16402 c -50.6155,17.10256 -51.34749,0.85719 -64.49381,-4.51753 z"
         style="opacity:1;fill:#dc3a4f;fill-opacity:1;fill-rule:nonzero;stroke:none;stroke-width:0.2;stroke-linecap:butt;stroke-linejoin:round;stroke-miterlimit:4;stroke-dasharray:none;stroke-dashoffset:0;stroke-opacity:0.32156863" />
      <path
         sodipodi:nodetypes="cccccc"
         inkscape:connector-curvature="0"
         id="path4517"
         d="m 1004.8804,670.00395 c 12.4952,-2.30527 22.0001,-10.59133 31.0975,-19.69224 0.4524,6.11363 1.6706,12.59845 3.9936,18.08858 -6.5382,1.8162 -11.6558,7.46784 -15.7394,13.27278 l 2.819,24.19641 c -8.5542,-10.79123 -15.8073,-22.88354 -22.1707,-35.86553 z"
         style="opacity:1;fill:#f2b195;fill-opacity:1;fill-rule:nonzero;stroke:none;stroke-width:0.2;stroke-linecap:butt;stroke-linejoin:round;stroke-miterlimit:4;stroke-dasharray:none;stroke-dashoffset:0;stroke-opacity:0.32156863" />
      <path
         sodipodi:nodetypes="cccc"
         inkscape:connector-curvature="0"
         id="path4487"
         d="m 996.51191,686.01902 c 2.12996,-8.55229 4.48849,-23.04675 6.92999,-39.7009 0.5873,9.67074 1.588,19.25879 1.7619,29.0122 -3.5598,2.01693 -6.0255,6.587 -8.69189,10.6887 z"
         style="opacity:1;fill:#c5d0dc;fill-opacity:1;fill-rule:nonzero;stroke:none;stroke-width:0.2;stroke-linecap:butt;stroke-linejoin:round;stroke-miterlimit:4;stroke-dasharray:none;stroke-dashoffset:0;stroke-opacity:1" />
      <path
         sodipodi:nodetypes="cccccccccccccccccc"
         inkscape:connector-curvature="0"
         id="path4519"
         d="m 1027.0511,705.86948 c 15.9362,26.91047 31.5886,57.2278 48.7884,68.9756 17.0526,18.17933 35.9011,36.35606 51.4944,55.81333 6.8991,6.4193 15.5919,1.11981 24.0861,5.81388 5.1146,4.26111 10.4498,6.97763 15.8762,9.05507 2.3483,0.58062 2.874,-0.92157 3.054,-2.81899 -6.386,-6.8525 -13.5046,-12.0564 -21.1425,-16.09179 l 0.3523,-3.17137 c 7.8662,-1.38099 15.527,-3.54402 24.6378,-1.19128 5.8541,3.17943 11.5825,7.4739 14.9457,8.47369 1.2283,-0.37897 2.525,-0.66212 2.2317,-3.17137 -5.1749,-4.73885 -10.4075,-8.49472 -15.2981,-11.52761 -13.3688,-6.30342 -26.4616,-11.14904 -42.6088,-14.0783 -3.0978,-0.45437 -6.3488,-1.67442 -9.1618,-0.70474 -31.356,-51.0184 -54.899,-83.94359 -74.3804,-107.46273 -4.7959,-8.46086 -9.0923,-16.92172 -9.9546,-25.38258 l -24.7626,5.78146 z"
         style="opacity:1;fill:#ffebdf;fill-opacity:1;fill-rule:nonzero;stroke:none;stroke-width:0.2;stroke-linecap:butt;stroke-linejoin:round;stroke-miterlimit:4;stroke-dasharray:none;stroke-dashoffset:0;stroke-opacity:0.32156863" />
      <path
         sodipodi:nodetypes="ccccc"
         inkscape:connector-curvature="0"
         id="path4521"
         d="m 767.5373,677.17176 c 6.53173,-3.78089 41.00787,-20.08393 38.37166,-56.14555 6.25063,6.14351 10.72275,12.02723 13.26874,23.32089 -12.47526,12.19861 -25.44803,25.43063 -41.00929,34.98411 -3.63934,0.0452 -7.408,1.12509 -10.63111,-2.15945 z"
         style="opacity:1;fill:#f2b195;fill-opacity:1;fill-rule:nonzero;stroke:none;stroke-width:0.2;stroke-linecap:butt;stroke-linejoin:round;stroke-miterlimit:4;stroke-dasharray:none;stroke-dashoffset:0;stroke-opacity:0.32156863" />
      <path
         sodipodi:nodetypes="cccccccccccccc"
         inkscape:connector-curvature="0"
         id="path4523"
         d="m 809.72952,536.97399 c 1.93087,-6.26394 6.72652,-9.6631 11.46167,-13.12276 4.01609,0.85297 8.27716,0.97107 12.95665,-0.16612 0.59624,-3.01175 1.3345,-6.05506 0,-8.63777 -1.42287,-3.09884 -3.29374,-5.69367 -6.47833,-6.81055 -1.47455,-4.07639 -0.0339,-10.6361 2.52147,-13.43984 -4.66557,1.64 -6.26297,8.82121 -7.17257,15.10095 l -4.98334,-0.99668 c -0.86097,-5.4304 -0.11801,-11.22744 0.99667,-17.10943 -2.1056,5.20405 -4.4498,10.28879 -3.98667,16.77721 -2.87925,3.27656 -5.75852,1.77464 -8.63777,2.49167 2.72691,2.90731 5.93194,3.58339 7.80722,10.465 l -6.97666,9.30222 c -1.14139,3.69198 1.16744,4.50878 2.49166,6.1461 z"
         style="opacity:1;fill:#f2b195;fill-opacity:1;fill-rule:nonzero;stroke:none;stroke-width:0.2;stroke-linecap:butt;stroke-linejoin:round;stroke-miterlimit:4;stroke-dasharray:none;stroke-dashoffset:0;stroke-opacity:0.32156863" />
      <path
         sodipodi:nodetypes="cccc"
         inkscape:connector-curvature="0"
         id="path4525"
         d="m 848.04464,514.99977 1.5118,-2.87993 c -4.65193,-4.4563 -13.57611,-7.7709 -19.77317,-10.9911 5.80737,3.66652 14.63688,8.33348 18.26137,13.87103 z"
         style="opacity:1;fill:#f2b195;fill-opacity:1;fill-rule:nonzero;stroke:none;stroke-width:0.2;stroke-linecap:butt;stroke-linejoin:round;stroke-miterlimit:4;stroke-dasharray:none;stroke-dashoffset:0;stroke-opacity:0.32156863" />
      <path
         sodipodi:nodetypes="ccccc"
         inkscape:connector-curvature="0"
         id="path4539"
         d="m 1003.6967,650.51399 c 11.6123,-4.27152 23.0647,-12.49589 31.136,-22.07889 0.994,0.70094 1.8291,1.56084 2.4319,2.653 -7.8692,8.6285 -21.44,19.28363 -33.2382,24.85438 z"
         style="opacity:1;fill:#f7f6f5;fill-opacity:1;fill-rule:nonzero;stroke:none;stroke-width:0.2;stroke-linecap:butt;stroke-linejoin:round;stroke-miterlimit:4;stroke-dasharray:none;stroke-dashoffset:0;stroke-opacity:0.32156863" />
      <path
         style="opacity:1;fill:#f7f6f5;fill-opacity:1;fill-rule:nonzero;stroke:none;stroke-width:0.2;stroke-linecap:butt;stroke-linejoin:round;stroke-miterlimit:4;stroke-dasharray:none;stroke-dashoffset:0;stroke-opacity:0.32156863"
         d="m 1004.1436,657.8727 c 11.5445,-4.7465 26.0992,-15.73283 34.2587,-24.69846 l 1.407,3.72043 c -7.8692,8.6285 -23.5378,20.83577 -35.336,26.40652 z"
         id="path4541"
         inkscape:connector-curvature="0"
         sodipodi:nodetypes="ccccc" />
      <path
         sodipodi:nodetypes="ccccc"
         inkscape:connector-curvature="0"
         id="path4576"
         d="m 845.5501,544.64715 c 25.45748,15.19129 46.33088,34.24717 89.17762,30.77681 l -5.62061,-4.10945 c -35.06967,3.33584 -60.89604,-18.73894 -75.89185,-28.98461 z"
         style="opacity:1;fill:#f7f6f5;fill-opacity:1;fill-rule:nonzero;stroke:none;stroke-width:0.2;stroke-linecap:butt;stroke-linejoin:round;stroke-miterlimit:4;stroke-dasharray:none;stroke-dashoffset:0;stroke-opacity:0.32156863" />
      <path
         sodipodi:nodetypes="ccccc"
         inkscape:connector-curvature="0"
         id="path4578"
         d="m 925.80986,568.77821 c -18.94528,2.05941 -39.25038,-5.26662 -69.13977,-27.59695 l 5.73291,-2.05911 c 20.73345,15.06381 39.43759,28.80624 60.52699,27.36328 z"
         style="opacity:1;fill:#f7f6f5;fill-opacity:1;fill-rule:nonzero;stroke:none;stroke-width:0.2;stroke-linecap:butt;stroke-linejoin:round;stroke-miterlimit:4;stroke-dasharray:none;stroke-dashoffset:0;stroke-opacity:0.32156863" />
      <path
         sodipodi:nodetypes="ccccc"
         inkscape:connector-curvature="0"
         id="path4580"
         d="m 912.32279,557.60235 c -7.46387,-10.96582 -30.18999,-20.84509 -15.88328,-30.59502 0.41187,-1.74076 -0.18175,-2.47603 -0.49833,-3.48833 -12.42759,-1.01577 -7.20139,1.2311 -13.92329,6.80875 -7.68935,6.38041 24.31056,21.26909 30.3049,27.2746 z"
         style="opacity:1;fill:#7c8182;fill-opacity:1;fill-rule:nonzero;stroke:none;stroke-width:0.2;stroke-linecap:butt;stroke-linejoin:round;stroke-miterlimit:4;stroke-dasharray:none;stroke-dashoffset:0;stroke-opacity:0.32156863" />
      <path
         sodipodi:nodetypes="cccc"
         inkscape:connector-curvature="0"
         id="path4594"
         d="m 980.82394,431.99179 c -1.05522,-14.89075 6.51884,-24.29014 -13.56257,-51.28847 l -2.88242,-9.6743 c 23.91511,20.7874 23.27626,41.54068 16.44499,60.96277 z"
         style="opacity:1;fill:#be4120;fill-opacity:1;fill-rule:nonzero;stroke:none;stroke-width:0.2;stroke-linecap:butt;stroke-linejoin:round;stroke-miterlimit:4;stroke-dasharray:none;stroke-dashoffset:0;stroke-opacity:0.32156863" />
      <path
         sodipodi:nodetypes="cscsc"
         inkscape:connector-curvature="0"
         id="path4596"
         d="m 950.25951,362.72347 c 10.19922,7.61484 14.93169,16.65113 17.09445,25.47397 2.16275,8.82284 1.75579,17.43222 1.67611,24.19324 -0.34121,-8.09205 -11.53813,-33.1587 -15.11495,-41.32303 z"
         style="opacity:1;fill:#be4120;fill-opacity:1;fill-rule:nonzero;stroke:none;stroke-width:0.2;stroke-linecap:butt;stroke-linejoin:round;stroke-miterlimit:4;stroke-dasharray:none;stroke-dashoffset:0;stroke-opacity:0.32156863" />
      <path
         sodipodi:nodetypes="ccc"
         inkscape:connector-curvature="0"
         id="path4598"
         d="m 942.45229,374.51736 c 4.41818,11.24591 4.85149,24.48425 3.98666,38.37166 2.64983,-13.06398 9.73073,-26.86938 -3.98666,-38.37166 z"
         style="opacity:1;fill:#be4120;fill-opacity:1;fill-rule:nonzero;stroke:none;stroke-width:0.2;stroke-linecap:butt;stroke-linejoin:round;stroke-miterlimit:4;stroke-dasharray:none;stroke-dashoffset:0;stroke-opacity:0.32156863" />
      <path
         sodipodi:nodetypes="cccc"
         inkscape:connector-curvature="0"
         id="path4600"
         d="m 930.47521,380.86215 3.50541,-16.9759 c -24.80794,23.62356 -16.37573,41.24271 -13.62111,52.65721 -0.97154,-23.5342 3.2775,-33.07724 10.1157,-35.68131 z"
         style="opacity:1;fill:#be4120;fill-opacity:1;fill-rule:nonzero;stroke:none;stroke-width:0.2;stroke-linecap:butt;stroke-linejoin:round;stroke-miterlimit:4;stroke-dasharray:none;stroke-dashoffset:0;stroke-opacity:0.32156863" />
      <path
         sodipodi:nodetypes="cccc"
         inkscape:connector-curvature="0"
         id="path4602"
         d="m 912.7184,374.84957 c -9.23337,13.13423 -8.50656,25.66906 -6.5319,36.08217 1.02291,-10.8962 0.75316,-25.39823 5.72065,-25.2911 z"
         style="opacity:1;fill:#be4120;fill-opacity:1;fill-rule:nonzero;stroke:none;stroke-width:0.2;stroke-linecap:butt;stroke-linejoin:round;stroke-miterlimit:4;stroke-dasharray:none;stroke-dashoffset:0;stroke-opacity:0.32156863" />
      <path
         sodipodi:nodetypes="ccccccccccccccc"
         inkscape:connector-curvature="0"
         id="path4606"
         d="m 1007.4017,507.73845 c 0.048,-3.57017 0.085,-7.14691 1.6611,-9.80056 2.1095,-4.83685 5.4753,-7.78909 8.8039,-10.79722 -5.3327,-1.55432 -8.427,-5.62339 -11.1294,-10.13277 -1.4318,-4.50477 -3.0414,-8.9799 -2.6578,-13.78722 -6.89964,3.7369 -12.38238,9.24489 -16.77722,16.11277 -1.25464,1.67065 -2.55518,3.18776 -4.3189,3.15611 -7.92211,2.55875 -10.1254,9.31133 -13.6211,15.11612 -0.29456,2.39449 -1.09533,4.9788 0.99666,6.47833 1.82722,1.41218 3.65444,-0.0738 5.48167,-0.33223 l -0.33223,9.46834 c 5.48327,1.16437 9.32031,0.68252 13.28889,0.33222 l 5.98,4.15277 c -1.55765,-8.68974 0.0172,-13.55089 1.16278,-18.93666 z"
         style="opacity:1;fill:#fac324;fill-opacity:1;fill-rule:nonzero;stroke:none;stroke-width:0.2;stroke-linecap:butt;stroke-linejoin:round;stroke-miterlimit:4;stroke-dasharray:none;stroke-dashoffset:0;stroke-opacity:0.32156863" />
      <path
         sodipodi:nodetypes="ccccccc"
         inkscape:connector-curvature="0"
         id="path4608"
         d="m 975.84061,503.75178 c 2.36184,-7.27078 3.93516,-14.39819 9.5658,-22.2633 8.43558,-4.77241 15.40849,-2.96263 22.65329,-2.37692 -5.8358,2.02324 -15.88062,4.97555 -15.30646,9.81247 l 3.18681,9.84442 -7.65022,-7.84763 c -2.89179,6.7929 -8.16174,8.82945 -12.44922,12.83096 z"
         style="opacity:1;fill:#d6a000;fill-opacity:1;fill-rule:nonzero;stroke:none;stroke-width:0.2;stroke-linecap:butt;stroke-linejoin:round;stroke-miterlimit:4;stroke-dasharray:none;stroke-dashoffset:0;stroke-opacity:0.32156863" />
      <path
         inkscape:connector-curvature="0"
         id="path4618"
         d="m 980.52914,542.32217 1.09269,-3.27254 11.21951,-15.91587 -0.55573,14.17246 -3.92575,4.91333 z"
         style="opacity:1;fill:#fd9335;fill-opacity:1;fill-rule:nonzero;stroke:none;stroke-width:0.2;stroke-linecap:butt;stroke-linejoin:round;stroke-miterlimit:4;stroke-dasharray:none;stroke-dashoffset:0;stroke-opacity:0.32156863" />
      <path
         sodipodi:nodetypes="cccccccc"
         inkscape:connector-curvature="0"
         id="path4620"
         d="m 987.76075,425.15269 c 1.86782,11.08134 -1.07614,18.83876 -5.28511,34.52423 1.68357,2.04079 2.95604,1.45129 4.63961,2.11426 -2.16542,6.70426 -0.25723,11.84174 0.18703,17.54227 3.83816,-6.39901 7.09824,-13.07548 5.48165,-22.09278 2.63466,-14.01109 -1.09194,-43.26584 10.13277,-35.54777 -2.5115,-7.45094 -2.7561,-23.96956 -11.46165,-6.64444 z"
         style="opacity:1;fill:#be4120;fill-opacity:1;fill-rule:nonzero;stroke:none;stroke-width:0.2;stroke-linecap:butt;stroke-linejoin:round;stroke-miterlimit:4;stroke-dasharray:none;stroke-dashoffset:0;stroke-opacity:0.32156863" />
      <path
         sodipodi:nodetypes="cccc"
         inkscape:connector-curvature="0"
         id="path4622"
         d="m 887.74554,549.18014 c -16.78498,-6.53692 -28.86691,-19.65811 -25.84876,-53.9194 l 9.99189,-9.97791 c -3.7385,31.20364 1.43404,52.62685 15.85687,63.89731 z"
         style="opacity:1;fill:#ff8d54;fill-opacity:1;fill-rule:nonzero;stroke:none;stroke-width:0.2;stroke-linecap:butt;stroke-linejoin:round;stroke-miterlimit:4;stroke-dasharray:none;stroke-dashoffset:0;stroke-opacity:0.32156863" />
      <path
         sodipodi:nodetypes="ccccc"
         inkscape:connector-curvature="0"
         id="path4718"
         d="m 880.76126,487.62628 c -7.80389,0.87285 -13.12501,-6.80604 -18.15179,-15.49877 -1.71974,-6.7017 -1.60791,-13.07039 0.11748,-19.1457 3.38903,-3.42574 6.91799,-1.67479 10.62016,6.48568 2.14774,9.85375 2.73011,21.96858 7.41415,28.15879 z"
         style="opacity:1;fill:#fedfcc;fill-opacity:1;fill-rule:nonzero;stroke:none;stroke-width:0.2;stroke-linecap:butt;stroke-linejoin:round;stroke-miterlimit:4;stroke-dasharray:none;stroke-dashoffset:0;stroke-opacity:1" />
      <path
         sodipodi:nodetypes="cccc"
         inkscape:connector-curvature="0"
         id="path4624"
         d="m 906.7796,376.54015 c -10.86925,8.97267 -18.87763,20.37708 -20.91338,36.85821 2.04901,-24.35766 3.35721,-31.36844 25.13608,-45.80873 z"
         style="opacity:1;fill:#be4120;fill-opacity:1;fill-rule:nonzero;stroke:none;stroke-width:0.2;stroke-linecap:butt;stroke-linejoin:round;stroke-miterlimit:4;stroke-dasharray:none;stroke-dashoffset:0;stroke-opacity:0.32156863" />
      <path
         sodipodi:nodetypes="ccccccccc"
         inkscape:connector-curvature="0"
         id="path4630"
         d="m 914.94966,483.66692 c 6.1444,-3.41472 21.58329,-3.43288 24.65739,-0.29166 1.31686,0.41208 2.48664,1.11833 3.02764,3.08215 l 0.005,4.48774 c -0.12853,4.81131 -4.83849,8.09462 -10.25738,12.39517 l -9.04782,-1.02603 c -3.22159,-1.97125 -5.87339,-2.91617 -8.92683,-7.51734 -1.07871,-4.22097 -2.23262,-8.92317 0.54109,-11.13003 z"
         style="opacity:1;fill:#5b191f;fill-opacity:1;fill-rule:nonzero;stroke:none;stroke-width:0.2;stroke-linecap:butt;stroke-linejoin:round;stroke-miterlimit:4;stroke-dasharray:none;stroke-dashoffset:0;stroke-opacity:1" />
      <path
         sodipodi:nodetypes="cccccc"
         inkscape:connector-curvature="0"
         id="path4632"
         d="m 913.54955,491.08373 c 18.80806,-2.03646 23.52181,1.25584 26.38925,5.77032 -1.47008,2.46689 -5.22525,4.80202 -7.55622,6.48627 l -9.04782,-1.02603 c -4.12677,-2.09465 -6.99145,-4.64005 -8.92683,-7.51734 z"
         style="opacity:1;fill:#fc8684;fill-opacity:1;fill-rule:nonzero;stroke:none;stroke-width:0.2;stroke-linecap:butt;stroke-linejoin:round;stroke-miterlimit:4;stroke-dasharray:none;stroke-dashoffset:0;stroke-opacity:0.32156863" />
      <path
         sodipodi:nodetypes="ccccc"
         inkscape:connector-curvature="0"
         id="path4634"
         d="m 942.41074,471.4847 c -0.3115,1.55319 -2.02782,2.81795 -3.28071,3.44681 -1.36585,-0.65334 -2.73488,-2.22281 -3.28068,-3.44681 0.0658,-1.83781 1.71285,-3.20276 3.28068,-3.4468 1.58989,0.33698 2.89301,2.13173 3.28071,3.4468 z"
         style="opacity:1;fill:#f6d0c2;fill-opacity:1;fill-rule:nonzero;stroke:none;stroke-width:0.2;stroke-linecap:butt;stroke-linejoin:round;stroke-miterlimit:4;stroke-dasharray:none;stroke-dashoffset:0;stroke-opacity:0.32156863" />
      <path
         sodipodi:nodetypes="cccccccc"
         inkscape:connector-curvature="0"
         id="path4637"
         d="m 859.37936,419.21254 c -11.66422,3.65686 -3.68165,10.81868 0.46985,7.57607 -0.35776,8.15163 9.03226,4.98052 7.38388,-0.83646 l -0.95084,-3.33024 9.07318,-2.17605 0.057,-4.28723 -10.10141,1.70315 c 0.19827,-9.34267 -9.34523,-4.28787 -5.93164,1.35076 z"
         style="opacity:1;fill:#73e50f;fill-opacity:1;fill-rule:nonzero;stroke:none;stroke-width:0.2;stroke-linecap:butt;stroke-linejoin:round;stroke-miterlimit:4;stroke-dasharray:none;stroke-dashoffset:0;stroke-opacity:0.32156863" />
      <path
         sodipodi:nodetypes="cccc"
         inkscape:connector-curvature="0"
         id="path4639"
         d="m 857.38156,427.60952 c 1.52038,-4.57391 3.01258,-5.16229 4.61483,-5.50897 -0.94815,0.7541 -2.25699,3.37977 -2.14718,4.68806 -0.97405,0.72814 -1.70666,0.73192 -2.46765,0.82091 z"
         style="opacity:1;fill:#57ba00;fill-opacity:1;fill-rule:nonzero;stroke:none;stroke-width:0.2;stroke-linecap:butt;stroke-linejoin:round;stroke-miterlimit:4;stroke-dasharray:none;stroke-dashoffset:0;stroke-opacity:0.32156863" />
      <path
         sodipodi:nodetypes="ccccc"
         inkscape:connector-curvature="0"
         id="path4641"
         d="m 902.25597,465.70967 c 0,2.39838 -2.40264,2.66579 -5.17585,2.66579 -2.77322,0 -4.86684,-0.26741 -4.86684,-2.66579 0.36221,-1.77118 2.81634,-2.43824 5.17585,-2.45079 1.77143,-0.14215 4.48927,0.47271 4.86684,2.45079 z"
         style="opacity:1;fill:#ffd1cc;fill-opacity:1;fill-rule:nonzero;stroke:none;stroke-width:0.2;stroke-linecap:butt;stroke-linejoin:round;stroke-miterlimit:4;stroke-dasharray:none;stroke-dashoffset:0;stroke-opacity:0.32156863" />
      <path
         style="opacity:1;fill:#ffd1cc;fill-opacity:1;fill-rule:nonzero;stroke:none;stroke-width:0.2;stroke-linecap:butt;stroke-linejoin:round;stroke-miterlimit:4;stroke-dasharray:none;stroke-dashoffset:0;stroke-opacity:0.32156863"
         d="m 965.87683,472.33215 c -0.3575,2.37159 -2.77316,2.27788 -5.51539,1.86452 -2.74224,-0.41338 -4.7726,-0.98987 -4.4151,-3.36146 0.62217,-1.69741 3.14831,-1.99121 5.48333,-1.65191 1.77284,0.12353 4.36866,1.1366 4.44716,3.14885 z"
         id="path4644"
         inkscape:connector-curvature="0"
         sodipodi:nodetypes="ccccc" />
      <g
         transform="matrix(1.1459325,0,0,1.1459325,415.94788,171.48761)"
         id="g4682">
        <path
           style="opacity:1;fill:#a21e30;fill-opacity:1;fill-rule:nonzero;stroke:#000000;stroke-width:1;stroke-linecap:butt;stroke-linejoin:round;stroke-miterlimit:4;stroke-dasharray:none;stroke-dashoffset:0;stroke-opacity:1"
           d="m 420.62834,245.38328 6.98904,0 c 5.54351,-5.41331 6.32067,-16.74666 -3.71293,-17.90942 -12.10889,0.34482 -6.68954,17.0804 -3.27611,17.90942 z"
           id="path4654"
           inkscape:connector-curvature="0"
           sodipodi:nodetypes="cccc" />
        <path
           style="opacity:1;fill:#fefefe;fill-opacity:1;fill-rule:nonzero;stroke:none;stroke-width:0.2;stroke-linecap:butt;stroke-linejoin:round;stroke-miterlimit:4;stroke-dasharray:none;stroke-dashoffset:0;stroke-opacity:0.32156863"
           d="m 417.591,233.92779 c 1.47484,-0.097 2.08258,-0.19407 4.71155,-0.29111 1.57336,-1.59085 1.0279,-3.56133 0.4874,-5.53092 -5.71056,-0.99391 -6.8433,1.38963 -5.19895,5.82203 z"
           id="path4648"
           inkscape:connector-curvature="0"
           sodipodi:nodetypes="cccc" />
        <path
           style="opacity:1;fill:#ee798f;fill-opacity:1;fill-rule:nonzero;stroke:none;stroke-width:0.2;stroke-linecap:butt;stroke-linejoin:round;stroke-miterlimit:4;stroke-dasharray:none;stroke-dashoffset:0;stroke-opacity:0.32156863"
           d="m 421.25,243.75 c -4.84036,-10.43896 11.52609,-5.47954 5.71429,0"
           id="path4656"
           inkscape:connector-curvature="0"
           sodipodi:nodetypes="cc" />
        <path
           style="opacity:1;fill:#431214;fill-opacity:1;fill-rule:nonzero;stroke:none;stroke-width:0.2;stroke-linecap:butt;stroke-linejoin:round;stroke-miterlimit:4;stroke-dasharray:none;stroke-dashoffset:0;stroke-opacity:0.32156863"
           d="m 422.5673,238.83522 c 3.24751,0.70399 4.18439,-0.17519 3.36444,-4.03932 -3.69552,-0.68957 -4.42855,0.96412 -3.36444,4.03932 z"
           id="path4652"
           inkscape:connector-curvature="0"
           sodipodi:nodetypes="ccc" />
      </g>
      <path
         sodipodi:nodetypes="cccccc"
         inkscape:connector-curvature="0"
         id="path4712"
         d="m 899.84374,425.9664 c 2.86548,-2.3916 5.5028,-2.34658 10.20463,-2.28973 3.83049,0.89771 7.13412,1.57597 7.68099,3.41221 l 1.72992,4.75044 -1.52696,1.76186 z"
         style="opacity:1;fill:#ffba93;fill-opacity:1;fill-rule:nonzero;stroke:none;stroke-width:0.2;stroke-linecap:butt;stroke-linejoin:round;stroke-miterlimit:4;stroke-dasharray:none;stroke-dashoffset:0;stroke-opacity:1" />
      <path
         sodipodi:nodetypes="cccccc"
         inkscape:connector-curvature="0"
         id="path4658"
         d="m 887.04079,446.05177 -4.88684,-2.59831 c 3.08354,-13.12619 8.41463,-13.27884 16.77722,-17.44168 8.90195,-0.14264 15.5341,1.97626 18.60445,7.22584 0.59991,2.97254 0.87613,7.57292 -1.43397,5.74304 -11.12457,-19.90504 -32.44135,-1.16873 -29.06086,7.07111 z"
         style="opacity:1;fill:#34231e;fill-opacity:1;fill-rule:nonzero;stroke:none;stroke-width:0.2;stroke-linecap:butt;stroke-linejoin:round;stroke-miterlimit:4;stroke-dasharray:none;stroke-dashoffset:0;stroke-opacity:0.32156863" />
      <path
         style="opacity:1;fill:#a21e30;fill-opacity:1;fill-rule:nonzero;stroke:#000000;stroke-width:1.05319417;stroke-linecap:butt;stroke-linejoin:round;stroke-miterlimit:4;stroke-dasharray:none;stroke-dashoffset:0;stroke-opacity:1"
         d="m 957.84621,459.4758 7.34722,0.44719 c 6.17397,-5.33603 7.71613,-17.20047 -2.75729,-19.06481 -12.75151,-0.41229 -8.12525,17.52772 -4.58993,18.61762 z"
         id="path4664"
         inkscape:connector-curvature="0"
         sodipodi:nodetypes="cccc" />
      <path
         style="opacity:1;fill:#fefefe;fill-opacity:1;fill-rule:nonzero;stroke:none;stroke-width:0.2;stroke-linecap:butt;stroke-linejoin:round;stroke-miterlimit:4;stroke-dasharray:none;stroke-dashoffset:0;stroke-opacity:0.32156863"
         d="m 955.38618,447.23889 c 1.55663,-0.008 2.20173,-0.0708 4.97165,-0.004 1.75577,-1.57169 1.30844,-3.67807 0.86627,-5.78317 -5.93963,-1.41024 -7.28293,1.02297 -5.83792,5.78774 z"
         id="path4666"
         inkscape:connector-curvature="0"
         sodipodi:nodetypes="cccc" />
      <path
         style="opacity:1;fill:#ee798f;fill-opacity:1;fill-rule:nonzero;stroke:none;stroke-width:0.2;stroke-linecap:butt;stroke-linejoin:round;stroke-miterlimit:4;stroke-dasharray:none;stroke-dashoffset:0;stroke-opacity:0.32156863"
         d="m 958.60423,457.79859 c -4.42049,-11.28364 12.4674,-5.02286 6.00715,0.36564"
         id="path4668"
         inkscape:connector-curvature="0"
         sodipodi:nodetypes="cc" />
      <path
         style="opacity:1;fill:#431214;fill-opacity:1;fill-rule:nonzero;stroke:none;stroke-width:0.2;stroke-linecap:butt;stroke-linejoin:round;stroke-miterlimit:4;stroke-dasharray:none;stroke-dashoffset:0;stroke-opacity:0.32156863"
         d="m 960.30352,452.71623 c 3.3689,0.94785 4.41003,0.0835 3.79531,-4.03104 -3.84079,-0.96138 -4.7172,0.73016 -3.79531,4.03104 z"
         id="path4670"
         inkscape:connector-curvature="0"
         sodipodi:nodetypes="ccc" />
      <path
         sodipodi:nodetypes="cccc"
         inkscape:connector-curvature="0"
         id="path4714"
         d="m 951.76031,437.12493 c -0.88808,-2.9849 -0.41082,-5.52616 3.33279,-6.62264 12.70781,-1.21391 12.23696,3.05034 15.57799,6.97502 z"
         style="opacity:1;fill:#ffba93;fill-opacity:1;fill-rule:nonzero;stroke:none;stroke-width:0.2;stroke-linecap:butt;stroke-linejoin:round;stroke-miterlimit:4;stroke-dasharray:none;stroke-dashoffset:0;stroke-opacity:1" />
      <path
         sodipodi:nodetypes="cccccc"
         inkscape:connector-curvature="0"
         id="path4674"
         d="m 951.58839,440.29735 c 5.28052,-1.58007 10.02631,-4.45879 18.27221,1.16277 4.08598,4.24014 5.8454,8.25583 4.48501,14.61778 l 3.82056,-0.16611 c -0.29776,-5.58042 0.51112,-11.0133 -6.14612,-17.44166 -13.82408,-8.30866 -21.55571,-5.07548 -20.43166,1.82722 z"
         style="opacity:1;fill:#34231e;fill-opacity:1;fill-rule:nonzero;stroke:none;stroke-width:0.2;stroke-linecap:butt;stroke-linejoin:round;stroke-miterlimit:4;stroke-dasharray:none;stroke-dashoffset:0;stroke-opacity:1" />
      <path
         sodipodi:nodetypes="ccc"
         inkscape:connector-curvature="0"
         id="path4690"
         d="m 936.90184,416.6872 c -1.05477,-11.71763 -1.43371,-23.98109 5.52054,-42.16752 -4.43381,3.56996 -11.09207,21.1006 -5.52054,42.16752 z"
         style="opacity:1;fill:#be4120;fill-opacity:1;fill-rule:nonzero;stroke:none;stroke-width:0.2;stroke-linecap:butt;stroke-linejoin:round;stroke-miterlimit:4;stroke-dasharray:none;stroke-dashoffset:0;stroke-opacity:1" />
      <path
         sodipodi:nodetypes="ccc"
         inkscape:connector-curvature="0"
         id="path4720"
         d="m 876.53007,478.50859 c -3.62757,-2.18477 -12.5358,-4.96766 -12.04127,-18.83167 5.71147,-2.6667 7.64924,5.61026 10.40315,11.52044"
         style="opacity:1;fill:#ffba93;fill-opacity:1;fill-rule:nonzero;stroke:none;stroke-width:0.2;stroke-linecap:butt;stroke-linejoin:round;stroke-miterlimit:4;stroke-dasharray:none;stroke-dashoffset:0;stroke-opacity:1" />
    </g>
  </g>
</svg>
