<?xml version="1.0" encoding="UTF-8" standalone="no"?>
<!-- Created with Inkscape (http://www.inkscape.org/) -->

<svg
   xmlns:dc="http://purl.org/dc/elements/1.1/"
   xmlns:cc="http://creativecommons.org/ns#"
   xmlns:rdf="http://www.w3.org/1999/02/22-rdf-syntax-ns#"
   xmlns:svg="http://www.w3.org/2000/svg"
   xmlns="http://www.w3.org/2000/svg"
   xmlns:sodipodi="http://sodipodi.sourceforge.net/DTD/sodipodi-0.dtd"
   xmlns:inkscape="http://www.inkscape.org/namespaces/inkscape"
   width="305"
   height="630"
   viewBox="0 0 305 630.00001"
   id="svg4540"
   version="1.1"
   inkscape:version="0.91 r13725"
   sodipodi:docname="conky_template.svg"
   inkscape:export-filename="/home/mirza/mirza/desktop/Project Orange Cat/conky/.conky-project-orange-cat/background.png"
   inkscape:export-xdpi="90"
   inkscape:export-ydpi="90">
  <defs
     id="defs4542">
    <clipPath
       clipPathUnits="userSpaceOnUse"
       id="clipPath5938">
      <rect
         style="opacity:1;fill:#f89d63;fill-opacity:1;fill-rule:nonzero;stroke:none;stroke-width:1.5;stroke-linecap:round;stroke-linejoin:round;stroke-miterlimit:4;stroke-dasharray:none;stroke-dashoffset:0;stroke-opacity:1"
         id="rect5940"
         width="82.016991"
         height="46.138718"
         x="-1196.052"
         y="372.60168"
         transform="scale(-1,1)" />
    </clipPath>
  </defs>
  <sodipodi:namedview
     id="base"
     pagecolor="#ffffff"
     bordercolor="#666666"
     borderopacity="1.0"
     inkscape:pageopacity="0.0"
     inkscape:pageshadow="2"
     inkscape:zoom="0.5307518"
     inkscape:cx="-125.50328"
     inkscape:cy="352.7655"
     inkscape:document-units="px"
     inkscape:current-layer="layer1"
     showgrid="false"
     units="px"
     inkscape:snap-page="true"
     inkscape:window-width="1280"
     inkscape:window-height="776"
     inkscape:window-x="0"
     inkscape:window-y="0"
     inkscape:window-maximized="1" />
  <metadata
     id="metadata4545">
    <rdf:RDF>
      <cc:Work
         rdf:about="">
        <dc:format>image/svg+xml</dc:format>
        <dc:type
           rdf:resource="http://purl.org/dc/dcmitype/StillImage" />
        <dc:title />
      </cc:Work>
    </rdf:RDF>
  </metadata>
  <g
     inkscape:label="Layer 1"
     inkscape:groupmode="layer"
     id="layer1"
     transform="translate(0,-422.36216)">
    <path
       style="opacity:1;fill:#fac09a;fill-opacity:1;fill-rule:nonzero;stroke:none;stroke-width:5;stroke-linecap:butt;stroke-linejoin:round;stroke-miterlimit:4;stroke-dasharray:none;stroke-dashoffset:0;stroke-opacity:1;filter:url(#filter4436)"
       d="m 3,447.36215 299,0 c 1.662,0 3,1.3314 3,2.9852 l 0,599.02965 c 0,1.6538 -1.338,2.9852 -3,2.9852 l -299,0 c -1.662,0 -3,-1.3314 -3,-2.9852 L 0,450.34735 c 0,-1.6538 1.338,-2.9852 3,-2.9852 z"
       id="rect5500" />
    <path
       style="opacity:1;fill:#f5f5f6;fill-opacity:1;fill-rule:nonzero;stroke:none;stroke-width:5;stroke-linecap:butt;stroke-linejoin:round;stroke-miterlimit:4;stroke-dasharray:none;stroke-dashoffset:0;stroke-opacity:1;filter:url(#filter4436)"
       d="m 18,422.36182 269,0 c 1.662,0 3,1.33139 3,2.98519 l 0,599.02959 c 0,1.6538 -1.338,2.9852 -3,2.9852 l -269,0 c -1.662,0 -3,-1.3314 -3,-2.9852 l 0,-599.02959 c 0,-1.6538 1.338,-2.98519 3,-2.98519 z"
       id="rect5460" />
    <g
       transform="translate(-951.1953,78.267749)"
       style="font-style:normal;font-variant:normal;font-weight:300;font-stretch:normal;font-size:22px;line-height:99.00000095%;font-family:'Roboto Condensed';-inkscape-font-specification:'Roboto Condensed, Light';letter-spacing:0px;word-spacing:0px;opacity:0.97000002;fill:#8d7c70;fill-opacity:1;stroke:none;stroke-width:1px;stroke-linecap:butt;stroke-linejoin:miter;stroke-opacity:1;filter:url(#filter4436)"
       id="flowRoot5659">
      <path
         d="m 1003.96,412.57258 q -0.1719,2.63183 -1.418,3.86719 -1.2461,1.22461 -3.44825,1.22461 -2.2666,0 -3.57715,-1.70801 -1.31055,-1.71875 -1.32129,-4.66211 l 0,-3.39453 q 0,-2.9541 1.33203,-4.62989 1.34278,-1.67578 3.66309,-1.67578 2.19137,0 3.39457,1.25684 1.2031,1.25683 1.375,3.85644 l -1.2461,0 q -0.1719,-2.12695 -1.0098,-3.04004 -0.8271,-0.91308 -2.51367,-0.91308 -1.77246,0 -2.76074,1.32129 -0.98828,1.32129 -0.98828,3.83496 l 0,3.35156 q 0,2.49219 0.95605,3.87793 0.95606,1.38574 2.69629,1.38574 1.82615,0 2.64255,-0.91308 0.8164,-0.91309 0.9776,-3.04004 l 1.2461,0 z"
         style=""
         id="path4188" />
      <path
         d="m 1008.2676,411.09016 0,6.35937 -1.2246,0 0,-15.64062 4.5439,0 q 2.0733,0 3.2656,1.24609 1.1924,1.24609 1.1924,3.42676 0,2.22363 -1.1601,3.41601 -1.1494,1.19239 -3.3194,1.19239 l -3.2978,0 z m 0,-1.14942 3.3193,0 q 1.5469,0 2.3848,-0.8916 0.8486,-0.90234 0.8486,-2.5459 0,-1.64355 -0.8594,-2.58886 -0.8486,-0.94532 -2.3632,-0.94532 l -3.3301,0 0,6.97168 z"
         style=""
         id="path4190" />
      <path
         d="m 1027.9902,401.80891 0,11.09668 q -0.011,2.2666 -1.2246,3.51269 -1.2031,1.2461 -3.4267,1.2461 -2.2559,0 -3.459,-1.22461 -1.1924,-1.23536 -1.1924,-3.57715 l 0,-11.05371 1.2246,0 0,11.01074 q 0,3.70605 3.4268,3.70605 3.373,0 3.416,-3.59863 l 0,-11.11816 1.2353,0 z"
         style=""
         id="path4192" />
    </g>
    <g
       style="opacity:0.97000002;filter:url(#filter4436)"
       id="g5811"
       transform="translate(-966.12499,44.999652)">
      <path
         style="opacity:1;fill:none;fill-opacity:1;fill-rule:nonzero;stroke:#8d7c70;stroke-width:1.5;stroke-linecap:round;stroke-linejoin:round;stroke-miterlimit:4;stroke-dasharray:none;stroke-dashoffset:0;stroke-opacity:1"
         d="m 1026.875,411.11215 10,0 0,10 -10,0 z"
         id="rect5795" />
      <path
         id="rect5793"
         transform="translate(0,252.36216)"
         d="m 1021.875,153 a 0.750075,0.750075 0 0 0 -0.75,0.75 l 0,3 1.5,0 0,-2.25 2.25,0 0,-1.5 -3,0 z m 5,0 0,1.5 2,0 0,-1.5 -2,0 z m 4,0 0,1.5 2,0 0,-1.5 -2,0 z m 4,0 0,1.5 2,0 0,-1.5 -2,0 z m 4,0 0,1.5 2.25,0 0,2.25 1.5,0 0,-3 a 0.750075,0.750075 0 0 0 -0.75,-0.75 l -3,0 z m -17.75,5.75 0,2 1.5,0 0,-2 -1.5,0 z m 20,0 0,2 1.5,0 0,-2 -1.5,0 z m -20,4 0,2 1.5,0 0,-2 -1.5,0 z m 20,0 0,2 1.5,0 0,-2 -1.5,0 z m -20,4 0,2 1.5,0 0,-2 -1.5,0 z m 20,0 0,2 1.5,0 0,-2 -1.5,0 z m -20,4 0,3 a 0.750075,0.750075 0 0 0 0.75,0.75 l 3,0 0,-1.5 -2.25,0 0,-2.25 -1.5,0 z m 20,0 0,2.25 -2.25,0 0,1.5 3,0 a 0.750075,0.750075 0 0 0 0.75,-0.75 l 0,-3 -1.5,0 z m -14.25,2.25 0,1.5 2,0 0,-1.5 -2,0 z m 4,0 0,1.5 2,0 0,-1.5 -2,0 z m 4,0 0,1.5 2,0 0,-1.5 -2,0 z"
         style="color:#000000;font-style:normal;font-variant:normal;font-weight:normal;font-stretch:normal;font-size:medium;line-height:normal;font-family:sans-serif;text-indent:0;text-align:start;text-decoration:none;text-decoration-line:none;text-decoration-style:solid;text-decoration-color:#000000;letter-spacing:normal;word-spacing:normal;text-transform:none;direction:ltr;block-progression:tb;writing-mode:lr-tb;baseline-shift:baseline;text-anchor:start;white-space:normal;clip-rule:nonzero;display:inline;overflow:visible;visibility:visible;opacity:1;isolation:auto;mix-blend-mode:normal;color-interpolation:sRGB;color-interpolation-filters:linearRGB;solid-color:#000000;solid-opacity:1;fill:#8d7c70;fill-opacity:1;fill-rule:nonzero;stroke:none;stroke-width:1.5;stroke-linecap:round;stroke-linejoin:round;stroke-miterlimit:4;stroke-dasharray:none;stroke-dashoffset:0;stroke-opacity:1;color-rendering:auto;image-rendering:auto;shape-rendering:auto;text-rendering:auto;enable-background:accumulate"
         inkscape:connector-curvature="0" />
    </g>
    <path
       style="opacity:1;fill:#efe7e3;fill-opacity:1;fill-rule:nonzero;stroke:none;stroke-width:1.51032519;stroke-linecap:round;stroke-linejoin:round;stroke-miterlimit:4;stroke-dasharray:none;stroke-dashoffset:0;stroke-opacity:1;filter:url(#filter4436)"
       d="m 92.897208,458.14699 161.000002,0 0,30 -161.000002,0 z"
       id="rect5966"
       inkscape:connector-curvature="0"
       sodipodi:nodetypes="ccccc" />
    <path
       style="opacity:1;fill:none;fill-opacity:1;fill-rule:nonzero;stroke:#8d7c70;stroke-width:1.5;stroke-linecap:round;stroke-linejoin:round;stroke-miterlimit:4;stroke-dasharray:none;stroke-dashoffset:0;stroke-opacity:1;filter:url(#filter4436)"
       d="m 84.794922,450.37015 177.204498,0 0,45.55368 -177.204498,0 z"
       id="rect5824" />
    <path
       style="opacity:1;fill:#efe7e3;fill-opacity:1;fill-rule:nonzero;stroke:none;stroke-width:1.5;stroke-linecap:round;stroke-linejoin:round;stroke-miterlimit:4;stroke-dasharray:none;stroke-dashoffset:0;stroke-opacity:1;filter:url(#filter4436)"
       d="m 60.833313,538.01562 183.333327,0 0,2 -183.333327,0 z"
       id="rect5909" />
    <path
       style="opacity:1;fill:none;fill-opacity:1;fill-rule:nonzero;stroke:#8d7c70;stroke-width:1.5;stroke-linecap:round;stroke-linejoin:round;stroke-miterlimit:4;stroke-dasharray:none;stroke-dashoffset:0;stroke-opacity:1;filter:url(#filter4436)"
       d="m 43.000008,558.01559 219.000002,0 0,20.04462 -219.000002,0 z"
       id="rect5925"
       inkscape:connector-curvature="0"
       sodipodi:nodetypes="ccccc" />
    <path
       sodipodi:nodetypes="ccccc"
       inkscape:connector-curvature="0"
       id="path6996"
       d="m 51.000008,566.04332 203.000002,0 0,4 -203.000002,0 z"
       style="opacity:1;fill:#efe7e3;fill-opacity:1;fill-rule:nonzero;stroke:none;stroke-width:1.5;stroke-linecap:round;stroke-linejoin:round;stroke-miterlimit:4;stroke-dasharray:none;stroke-dashoffset:0;stroke-opacity:1;filter:url(#filter4436)" />
    <g
       transform="translate(-951.56054,184.25129)"
       style="font-style:normal;font-variant:normal;font-weight:300;font-stretch:normal;font-size:22px;line-height:99.00000095%;font-family:'Roboto Condensed';-inkscape-font-specification:'Roboto Condensed, Light';letter-spacing:0px;word-spacing:0px;opacity:0.97000002;fill:#8d7c70;fill-opacity:1;stroke:none;stroke-width:1px;stroke-linecap:butt;stroke-linejoin:miter;stroke-opacity:1;filter:url(#filter4436)"
       id="flowRoot6177">
      <path
         d="m 999.44824,410.93977 -3.65234,0 0,6.50976 -1.23535,0 0,-15.64062 4.28613,0 q 2.13772,0 3.30862,1.22461 1.1816,1.21386 1.1816,3.38378 0,1.51465 -0.7305,2.66407 -0.7304,1.13867 -1.9658,1.5791 l 3.2549,6.64941 0,0.13965 -1.3105,0 -3.13676,-6.50976 z m -3.65234,-1.13868 3.26562,0 q 1.38578,0 2.21288,-0.94531 0.8272,-0.95605 0.8272,-2.43848 0,-1.64355 -0.8594,-2.54589 -0.8594,-0.90235 -2.40626,-0.90235 l -3.04004,0 0,6.83203 z"
         style=""
         id="path4198" />
      <path
         d="m 1013.8105,413.07746 -5.8652,0 -1.332,4.37207 -1.2783,0 4.9843,-15.64062 1.1387,0 4.9844,15.64062 -1.2783,0 -1.3536,-4.37207 z m -5.5107,-1.14941 5.1563,0 -2.5782,-8.38965 -2.5781,8.38965 z"
         style=""
         id="path4200" />
      <path
         d="m 1020.3955,401.80891 4.7373,13.76074 4.7588,-13.76074 1.6221,0 0,15.64062 -1.2246,0 0,-6.77832 0.1074,-6.82129 -4.791,13.59961 -0.9453,0 -4.7696,-13.53515 0.1074,6.71386 0,6.82129 -1.2246,0 0,-15.64062 1.6221,0 z"
         style=""
         id="path4202" />
    </g>
    <path
       style="opacity:1;fill:#efe7e3;fill-opacity:1;fill-rule:nonzero;stroke:none;stroke-width:1.5;stroke-linecap:round;stroke-linejoin:round;stroke-miterlimit:4;stroke-dasharray:none;stroke-dashoffset:0;stroke-opacity:1;filter:url(#filter4436)"
       d="m 60.833313,620.15198 183.333327,0 0,2 -183.333327,0 z"
       id="rect5028" />
    <g
       transform="translate(-995.29686,456.44793)"
       style="font-style:normal;font-variant:normal;font-weight:300;font-stretch:normal;font-size:16px;line-height:99.00000095%;font-family:'Roboto Condensed';-inkscape-font-specification:'Roboto Condensed, Light';letter-spacing:0px;word-spacing:0px;fill:#8d7c70;fill-opacity:1;stroke:none;stroke-width:1px;stroke-linecap:butt;stroke-linejoin:miter;stroke-opacity:1"
       id="flowRoot5070">
      <path
         d="m 1070.0039,192.05563 -4.2656,0 -0.9688,3.17968 -0.9297,0 3.625,-11.375 0.8282,0 3.625,11.375 -0.9297,0 -0.9844,-3.17968 z m -4.0078,-0.83594 3.75,0 -1.875,-6.10156 -1.875,6.10156 z"
         style=""
         id="path4206" />
      <path
         d="m 1080.3398,191.68844 q -0.125,1.91406 -1.0312,2.8125 -0.9063,0.89062 -2.5078,0.89062 -1.6485,0 -2.6016,-1.24218 -0.9531,-1.25 -0.9609,-3.39063 l 0,-2.46875 q 0,-2.14844 0.9687,-3.36719 0.9766,-1.21875 2.6641,-1.21875 1.5937,0 2.4687,0.91407 0.875,0.91406 1,2.80468 l -0.9062,0 q -0.125,-1.54687 -0.7344,-2.21093 -0.6015,-0.66407 -1.8281,-0.66407 -1.2891,0 -2.0078,0.96094 -0.7188,0.96094 -0.7188,2.78906 l 0,2.4375 q 0,1.8125 0.6953,2.82032 0.6954,1.00781 1.961,1.00781 1.3281,0 1.9219,-0.66406 0.5937,-0.66407 0.7109,-2.21094 l 0.9062,0 z"
         style=""
         id="path4208" />
      <path
         d="m 1083.4727,190.61031 0,4.625 -0.8907,0 0,-11.375 3.3047,0 q 1.5078,0 2.375,0.90625 0.8672,0.90625 0.8672,2.49219 0,1.61719 -0.8437,2.48438 -0.836,0.86718 -2.4141,0.86718 l -2.3984,0 z m 0,-0.83593 2.414,0 q 1.125,0 1.7344,-0.64844 0.6172,-0.65625 0.6172,-1.85156 0,-1.19532 -0.625,-1.88282 -0.6172,-0.6875 -1.7188,-0.6875 l -2.4218,0 0,5.07032 z"
         style=""
         id="path4210" />
      <path
         d="m 1092.2617,195.23531 -0.8906,0 0,-11.375 0.8906,0 0,11.375 z"
         style=""
         id="path4212" />
    </g>
    <g
       transform="translate(-855.1953,456.44793)"
       style="font-style:normal;font-variant:normal;font-weight:300;font-stretch:normal;font-size:16px;line-height:99.00000095%;font-family:'Roboto Condensed';-inkscape-font-specification:'Roboto Condensed, Light';letter-spacing:0px;word-spacing:0px;fill:#8d7c70;fill-opacity:1;stroke:none;stroke-width:1px;stroke-linecap:butt;stroke-linejoin:miter;stroke-opacity:1"
       id="flowRoot5088">
      <path
         d="m 1071.6523,191.68844 q -0.125,1.91406 -1.0312,2.8125 -0.9063,0.89062 -2.5078,0.89062 -1.6485,0 -2.6016,-1.24218 -0.9531,-1.25 -0.9609,-3.39063 l 0,-2.46875 q 0,-2.14844 0.9687,-3.36719 0.9766,-1.21875 2.6641,-1.21875 1.5937,0 2.4687,0.91407 0.875,0.91406 1,2.80468 l -0.9062,0 q -0.125,-1.54687 -0.7344,-2.21093 -0.6015,-0.66407 -1.8281,-0.66407 -1.2891,0 -2.0078,0.96094 -0.7188,0.96094 -0.7188,2.78906 l 0,2.4375 q 0,1.8125 0.6953,2.82032 0.6954,1.00781 1.961,1.00781 1.3281,0 1.9219,-0.66406 0.5937,-0.66407 0.7109,-2.21094 l 0.9062,0 z"
         style=""
         id="path4215" />
      <path
         d="m 1074.7852,190.61031 0,4.625 -0.8907,0 0,-11.375 3.3047,0 q 1.5078,0 2.375,0.90625 0.8672,0.90625 0.8672,2.49219 0,1.61719 -0.8437,2.48438 -0.836,0.86718 -2.4141,0.86718 l -2.3984,0 z m 0,-0.83593 2.414,0 q 1.125,0 1.7344,-0.64844 0.6172,-0.65625 0.6172,-1.85156 0,-1.19532 -0.625,-1.88282 -0.6172,-0.6875 -1.7188,-0.6875 l -2.4218,0 0,5.07032 z"
         style=""
         id="path4217" />
      <path
         d="m 1089.1289,183.86031 0,8.07032 q -0.01,1.64843 -0.8906,2.55468 -0.875,0.90625 -2.4922,0.90625 -1.6406,0 -2.5156,-0.89062 -0.8672,-0.89844 -0.8672,-2.60156 l 0,-8.03907 0.8906,0 0,8.00782 q 0,2.69531 2.4922,2.69531 2.4531,0 2.4844,-2.61719 l 0,-8.08594 0.8984,0 z"
         style=""
         id="path4219" />
    </g>
    <path
       inkscape:connector-curvature="0"
       style="opacity:1;fill:none;fill-opacity:1;fill-rule:nonzero;stroke:#8d7c70;stroke-width:1.5;stroke-linecap:butt;stroke-linejoin:round;stroke-miterlimit:4;stroke-dasharray:none;stroke-dashoffset:0;stroke-opacity:1;filter:url(#filter4436)"
       d="m 152.60801,642.8854 c -1.0907,0 -1.9687,0.892 -1.9687,2 l 0,8.76171 a 4,4 0 0 0 -2,3.45899 4,4 0 0 0 4,4 4,4 0 0 0 4,-4 4,4 0 0 0 -2,-3.45899 l 0,-8.76171 c 0,-1.108 -0.8781,-2 -1.9688,-2 l -0.062,0 z"
       id="path5118" />
    <path
       style="color:#000000;font-style:normal;font-variant:normal;font-weight:normal;font-stretch:normal;font-size:medium;line-height:normal;font-family:sans-serif;text-indent:0;text-align:start;text-decoration:none;text-decoration-line:none;text-decoration-style:solid;text-decoration-color:#000000;letter-spacing:normal;word-spacing:normal;text-transform:none;direction:ltr;block-progression:tb;writing-mode:lr-tb;baseline-shift:baseline;text-anchor:start;white-space:normal;clip-rule:nonzero;display:inline;overflow:visible;visibility:visible;opacity:1;isolation:auto;mix-blend-mode:normal;color-interpolation:sRGB;color-interpolation-filters:linearRGB;solid-color:#000000;solid-opacity:1;fill:#8d7c70;fill-opacity:1;fill-rule:nonzero;stroke:none;stroke-width:1.5;stroke-linecap:butt;stroke-linejoin:round;stroke-miterlimit:4;stroke-dasharray:none;stroke-dashoffset:0;stroke-opacity:1;filter:url(#filter4436);color-rendering:auto;image-rendering:auto;shape-rendering:auto;text-rendering:auto;enable-background:accumulate"
       d="m 156.38741,651.47219 0,1.5 5,0 0,-1.5 -5,0 z"
       id="path5126"
       inkscape:connector-curvature="0" />
    <path
       style="color:#000000;font-style:normal;font-variant:normal;font-weight:normal;font-stretch:normal;font-size:medium;line-height:normal;font-family:sans-serif;text-indent:0;text-align:start;text-decoration:none;text-decoration-line:none;text-decoration-style:solid;text-decoration-color:#000000;letter-spacing:normal;word-spacing:normal;text-transform:none;direction:ltr;block-progression:tb;writing-mode:lr-tb;baseline-shift:baseline;text-anchor:start;white-space:normal;clip-rule:nonzero;display:inline;overflow:visible;visibility:visible;opacity:1;isolation:auto;mix-blend-mode:normal;color-interpolation:sRGB;color-interpolation-filters:linearRGB;solid-color:#000000;solid-opacity:1;fill:#8d7c70;fill-opacity:1;fill-rule:nonzero;stroke:none;stroke-width:1.5;stroke-linecap:butt;stroke-linejoin:round;stroke-miterlimit:4;stroke-dasharray:none;stroke-dashoffset:0;stroke-opacity:1;filter:url(#filter4436);color-rendering:auto;image-rendering:auto;shape-rendering:auto;text-rendering:auto;enable-background:accumulate"
       d="m 156.38731,648.47245 0,1.5 5,0 0,-1.5 -5,0 z"
       id="path5134"
       inkscape:connector-curvature="0" />
    <path
       inkscape:connector-curvature="0"
       id="path5138"
       d="m 156.38731,645.47245 0,1.5 3,0 0,-1.5 -3,0 z"
       style="color:#000000;font-style:normal;font-variant:normal;font-weight:normal;font-stretch:normal;font-size:medium;line-height:normal;font-family:sans-serif;text-indent:0;text-align:start;text-decoration:none;text-decoration-line:none;text-decoration-style:solid;text-decoration-color:#000000;letter-spacing:normal;word-spacing:normal;text-transform:none;direction:ltr;block-progression:tb;writing-mode:lr-tb;baseline-shift:baseline;text-anchor:start;white-space:normal;clip-rule:nonzero;display:inline;overflow:visible;visibility:visible;opacity:1;isolation:auto;mix-blend-mode:normal;color-interpolation:sRGB;color-interpolation-filters:linearRGB;solid-color:#000000;solid-opacity:1;fill:#8d7c70;fill-opacity:1;fill-rule:nonzero;stroke:none;stroke-width:1.5;stroke-linecap:butt;stroke-linejoin:round;stroke-miterlimit:4;stroke-dasharray:none;stroke-dashoffset:0;stroke-opacity:1;filter:url(#filter4436);color-rendering:auto;image-rendering:auto;shape-rendering:auto;text-rendering:auto;enable-background:accumulate" />
    <g
       transform="translate(-1020.957,591.60223)"
       style="font-style:normal;font-variant:normal;font-weight:300;font-stretch:normal;font-size:16px;line-height:99.00000095%;font-family:'Roboto Condensed';-inkscape-font-specification:'Roboto Condensed, Light';letter-spacing:0px;word-spacing:0px;opacity:0.97000002;fill:#8d7c70;fill-opacity:1;stroke:none;stroke-width:1px;stroke-linecap:butt;stroke-linejoin:miter;stroke-opacity:1;filter:url(#filter4436)"
       id="flowRoot5182">
      <path
         d="m 1065.7227,190.61031 0,4.625 -0.8907,0 0,-11.375 3.3047,0 q 1.5078,0 2.375,0.90625 0.8672,0.90625 0.8672,2.49219 0,1.61719 -0.8437,2.48438 -0.836,0.86718 -2.4141,0.86718 l -2.3984,0 z m 0,-0.83593 2.414,0 q 1.125,0 1.7344,-0.64844 0.6172,-0.65625 0.6172,-1.85156 0,-1.19532 -0.625,-1.88282 -0.6172,-0.6875 -1.7188,-0.6875 l -2.4218,0 0,5.07032 z"
         style=""
         id="path4222" />
      <path
         d="m 1076.9961,190.50094 -2.6563,0 0,4.73437 -0.8984,0 0,-11.375 3.1172,0 q 1.5547,0 2.4062,0.89063 0.8594,0.88281 0.8594,2.46094 0,1.10156 -0.5312,1.9375 -0.5313,0.82812 -1.4297,1.14843 l 2.3672,4.83594 0,0.10156 -0.9532,0 -2.2812,-4.73437 z m -2.6563,-0.82813 2.375,0 q 1.0079,0 1.6094,-0.6875 0.6016,-0.69531 0.6016,-1.77343 0,-1.19532 -0.625,-1.85157 -0.625,-0.65625 -1.75,-0.65625 l -2.211,0 0,4.96875 z"
         style=""
         id="path4224" />
      <path
         d="m 1089.3242,190.78219 q 0,2.20312 -0.9687,3.40625 -0.961,1.20312 -2.7032,1.20312 -1.7265,0 -2.7109,-1.20312 -0.9766,-1.20313 -0.9844,-3.38281 l 0,-2.47657 q 0,-2.19531 0.9766,-3.40625 0.9766,-1.21875 2.7031,-1.21875 1.75,0 2.7188,1.21875 0.9687,1.21875 0.9687,3.42969 l 0,2.42969 z m -0.8984,-2.46875 q 0,-1.86719 -0.7188,-2.80469 -0.7187,-0.9375 -2.0703,-0.9375 -1.3047,0 -2.039,0.92188 -0.7344,0.91406 -0.75,2.74218 l 0,2.54688 q 0,1.875 0.7421,2.82031 0.7422,0.9375 2.0625,0.9375 1.3594,0 2.0625,-0.9375 0.711,-0.9375 0.711,-2.82031 l 0,-2.46875 z"
         style=""
         id="path4226" />
      <path
         d="m 1098.6367,193.915 q -0.5703,0.73438 -1.4375,1.10938 -0.8672,0.36718 -1.8984,0.36718 -1.75,0 -2.75,-1.17187 -1,-1.17188 -1.0391,-3.25 l 0,-2.76563 q 0,-2.17968 0.9453,-3.33593 0.9532,-1.16407 2.711,-1.16407 1.5703,0 2.4609,0.86719 0.8906,0.86719 1,2.5 l -0.8906,0 q -0.1406,-1.3125 -0.7735,-1.91406 -0.625,-0.60938 -1.789,-0.60938 -1.3906,0 -2.086,0.92969 -0.6875,0.92188 -0.6875,2.71094 l 0,2.625 q 0,1.78125 0.7579,2.76562 0.7656,0.98438 2.1406,0.98438 1.4922,0 2.4375,-0.94531 l 0,-2.96094 -2.4922,0 0,-0.83594 3.3906,0 0,4.09375 z"
         style=""
         id="path4228" />
      <path
         d="m 1104.7461,190.50094 -2.6563,0 0,4.73437 -0.8984,0 0,-11.375 3.1172,0 q 1.5547,0 2.4062,0.89063 0.8594,0.88281 0.8594,2.46094 0,1.10156 -0.5312,1.9375 -0.5313,0.82812 -1.4297,1.14843 l 2.3672,4.83594 0,0.10156 -0.9532,0 -2.2812,-4.73437 z m -2.6563,-0.82813 2.375,0 q 1.0079,0 1.6094,-0.6875 0.6016,-0.69531 0.6016,-1.77343 0,-1.19532 -0.625,-1.85157 -0.625,-0.65625 -1.75,-0.65625 l -2.211,0 0,4.96875 z"
         style=""
         id="path4230" />
      <path
         d="m 1115.1914,192.05563 -4.2656,0 -0.9688,3.17968 -0.9297,0 3.625,-11.375 0.8282,0 3.625,11.375 -0.9297,0 -0.9844,-3.17968 z m -4.0078,-0.83594 3.75,0 -1.875,-6.10156 -1.875,6.10156 z"
         style=""
         id="path4232" />
      <path
         d="m 1119.9805,183.86031 3.4453,10.00782 3.4609,-10.00782 1.1797,0 0,11.375 -0.8906,0 0,-4.92968 0.078,-4.96094 -3.4844,9.89062 -0.6875,0 -3.4687,-9.84375 0.078,4.88282 0,4.96093 -0.8906,0 0,-11.375 1.1797,0 z"
         style=""
         id="path4234" />
    </g>
    <path
       style="opacity:1;fill:#efe7e3;fill-opacity:1;fill-rule:nonzero;stroke:none;stroke-width:1.5;stroke-linecap:round;stroke-linejoin:round;stroke-miterlimit:4;stroke-dasharray:none;stroke-dashoffset:0;stroke-opacity:1;filter:url(#filter4436)"
       d="m 60.833313,701.21448 183.333327,0 0,2 -183.333327,0 z"
       id="rect5254" />
    <path
       style="opacity:1;fill:#efe7e3;fill-opacity:1;fill-rule:nonzero;stroke:none;stroke-width:1.5;stroke-linecap:round;stroke-linejoin:round;stroke-miterlimit:4;stroke-dasharray:none;stroke-dashoffset:0;stroke-opacity:1;filter:url(#filter4436)"
       d="m 60.833313,755.30627 183.333327,0 0,2 -183.333327,0 z"
       id="rect5229" />
    <g
       transform="translate(-910.03515,591.60223)"
       style="font-style:normal;font-variant:normal;font-weight:300;font-stretch:normal;font-size:16px;line-height:99.00000095%;font-family:'Roboto Condensed';-inkscape-font-specification:'Roboto Condensed, Light';text-align:end;letter-spacing:0px;word-spacing:0px;text-anchor:end;opacity:0.97000002;fill:#8d7c70;fill-opacity:1;stroke:none;stroke-width:1px;stroke-linecap:butt;stroke-linejoin:miter;stroke-opacity:1;filter:url(#filter4436)"
       id="flowRoot5316">
      <path
         d="m 1069.8398,183.86031 3.4454,10.00782 3.4609,-10.00782 1.1797,0 0,11.375 -0.8906,0 0,-4.92968 0.078,-4.96094 -3.4844,9.89062 -0.6875,0 -3.4687,-9.84375 0.078,4.88282 0,4.96093 -0.8906,0 0,-11.375 1.1796,0 z"
         style=""
         id="path4239" />
      <path
         d="m 1085.9336,189.79 -4.4141,0 0,4.61719 5.0782,0 0,0.82812 -5.9688,0 0,-11.375 5.9297,0 0,0.84375 -5.0391,0 0,4.25782 4.4141,0 0,0.82812 z"
         style=""
         id="path4241" />
      <path
         d="m 1089.7773,183.86031 3.4454,10.00782 3.4609,-10.00782 1.1797,0 0,11.375 -0.8906,0 0,-4.92968 0.078,-4.96094 -3.4844,9.89062 -0.6875,0 -3.4687,-9.84375 0.078,4.88282 0,4.96093 -0.8906,0 0,-11.375 1.1796,0 z"
         style=""
         id="path4243" />
      <path
         d="m 1107.6211,190.78219 q 0,2.20312 -0.9688,3.40625 -0.9609,1.20312 -2.7031,1.20312 -1.7265,0 -2.7109,-1.20312 -0.9766,-1.20313 -0.9844,-3.38281 l 0,-2.47657 q 0,-2.19531 0.9766,-3.40625 0.9765,-1.21875 2.7031,-1.21875 1.75,0 2.7187,1.21875 0.9688,1.21875 0.9688,3.42969 l 0,2.42969 z m -0.8984,-2.46875 q 0,-1.86719 -0.7188,-2.80469 -0.7187,-0.9375 -2.0703,-0.9375 -1.3047,0 -2.0391,0.92188 -0.7343,0.91406 -0.75,2.74218 l 0,2.54688 q 0,1.875 0.7422,2.82031 0.7422,0.9375 2.0625,0.9375 1.3594,0 2.0625,-0.9375 0.711,-0.9375 0.711,-2.82031 l 0,-2.46875 z"
         style=""
         id="path4245" />
      <path
         d="m 1113.543,190.50094 -2.6563,0 0,4.73437 -0.8984,0 0,-11.375 3.1172,0 q 1.5547,0 2.4062,0.89063 0.8594,0.88281 0.8594,2.46094 0,1.10156 -0.5313,1.9375 -0.5312,0.82812 -1.4296,1.14843 l 2.3671,4.83594 0,0.10156 -0.9531,0 -2.2812,-4.73437 z m -2.6563,-0.82813 2.375,0 q 1.0078,0 1.6094,-0.6875 0.6016,-0.69531 0.6016,-1.77343 0,-1.19532 -0.625,-1.85157 -0.625,-0.65625 -1.75,-0.65625 l -2.211,0 0,4.96875 z"
         style=""
         id="path4247" />
      <path
         d="m 1121.2695,190.04781 2.836,-6.1875 1.0234,0 -3.4219,7.09375 0,4.28125 -0.8906,0 0,-4.28125 -3.4141,-7.09375 1.0469,0 2.8203,6.1875 z"
         style=""
         id="path4249" />
      <path
         d="m 1137.0195,183.86031 0,8.07032 q -0.01,1.64843 -0.8906,2.55468 -0.875,0.90625 -2.4922,0.90625 -1.6406,0 -2.5156,-0.89062 -0.8672,-0.89844 -0.8672,-2.60156 l 0,-8.03907 0.8906,0 0,8.00782 q 0,2.69531 2.4922,2.69531 2.4531,0 2.4844,-2.61719 l 0,-8.08594 0.8984,0 z"
         style=""
         id="path4251" />
      <path
         d="m 1144.8789,192.43844 q 0,-0.95313 -0.5469,-1.5 -0.539,-0.54688 -2.0234,-1.04688 -1.4844,-0.5 -2.1797,-1.11718 -0.9141,-0.80469 -0.9141,-2.125 0,-1.30469 0.8985,-2.125 0.8984,-0.82032 2.3203,-0.82032 1.4531,0 2.375,0.95313 0.9219,0.95312 0.9219,2.45312 l -0.8985,0 q 0,-1.14843 -0.6484,-1.85156 -0.6406,-0.71094 -1.75,-0.71094 -1.0781,0 -1.7031,0.58594 -0.6172,0.57813 -0.6172,1.5 0,0.85938 0.5859,1.40625 0.586,0.54688 1.8672,0.97656 1.2813,0.42188 1.9375,0.88282 0.6563,0.45312 0.9688,1.07031 0.3125,0.61719 0.3125,1.45312 0,1.33594 -0.9063,2.15625 -0.8984,0.8125 -2.3828,0.8125 -1,0 -1.8281,-0.40625 -0.8203,-0.41406 -1.2891,-1.17968 -0.4609,-0.77344 -0.4609,-1.82032 l 0.8906,0 q 0,1.20313 0.7266,1.89063 0.7265,0.6875 1.9609,0.6875 1.0781,0 1.7266,-0.57813 0.6562,-0.57812 0.6562,-1.54687 z"
         style=""
         id="path4253" />
      <path
         d="m 1152.9883,192.05563 -4.2656,0 -0.9688,3.17968 -0.9297,0 3.625,-11.375 0.8281,0 3.625,11.375 -0.9296,0 -0.9844,-3.17968 z m -4.0078,-0.83594 3.75,0 -1.875,-6.10156 -1.875,6.10156 z"
         style=""
         id="path4255" />
      <path
         d="m 1163.4336,193.915 q -0.5703,0.73438 -1.4375,1.10938 -0.8672,0.36718 -1.8984,0.36718 -1.75,0 -2.75,-1.17187 -1,-1.17188 -1.0391,-3.25 l 0,-2.76563 q 0,-2.17968 0.9453,-3.33593 0.9531,-1.16407 2.7109,-1.16407 1.5704,0 2.461,0.86719 0.8906,0.86719 1,2.5 l -0.8906,0 q -0.1407,-1.3125 -0.7735,-1.91406 -0.625,-0.60938 -1.789,-0.60938 -1.3907,0 -2.086,0.92969 -0.6875,0.92188 -0.6875,2.71094 l 0,2.625 q 0,1.78125 0.7578,2.76562 0.7657,0.98438 2.1407,0.98438 1.4921,0 2.4375,-0.94531 l 0,-2.96094 -2.4922,0 0,-0.83594 3.3906,0 0,4.09375 z"
         style=""
         id="path4257" />
      <path
         d="m 1171.3086,189.79 -4.4141,0 0,4.61719 5.0782,0 0,0.82812 -5.9688,0 0,-11.375 5.9297,0 0,0.84375 -5.0391,0 0,4.25782 4.4141,0 0,0.82812 z"
         style=""
         id="path4259" />
    </g>
    <g
       transform="translate(-929.39583,485.24579)"
       style="font-style:normal;font-variant:normal;font-weight:normal;font-stretch:normal;font-size:16px;line-height:99.00000095%;font-family:'Roboto Condensed';-inkscape-font-specification:'Roboto Condensed, ';letter-spacing:0px;word-spacing:0px;opacity:0.97000002;fill:#8d7c70;fill-opacity:1;stroke:none;stroke-width:1px;stroke-linecap:butt;stroke-linejoin:miter;stroke-opacity:1;filter:url(#filter4436)"
       id="flowRoot5490">
      <path
         d="m 1071.3633,185.09469 -2.9922,0 0,10.14062 -1.4297,0 0,-10.14062 -2.9844,0 0,-1.23438 7.4063,0 0,1.23438 z"
         style=""
         id="path4262" />
      <path
         d="m 1078.5117,189.9775 -4.0234,0 0,4.03125 4.6875,0 0,1.22656 -6.1172,0 0,-11.375 6.0391,0 0,1.23438 -4.6094,0 0,3.65625 4.0234,0 0,1.22656 z"
         style=""
         id="path4264" />
      <path
         d="m 1082.8398,183.86031 2.9688,9.28125 2.9687,-9.28125 1.8438,0 0,11.375 -1.4297,0 0,-4.42968 0.1328,-4.4375 -2.9765,8.86718 -1.0938,0 -2.9609,-8.83593 0.1328,4.40625 0,4.42968 -1.4297,0 0,-11.375 1.8437,0 z"
         style=""
         id="path4266" />
      <path
         d="m 1094.5195,190.78219 0,4.45312 -1.4297,0 0,-11.375 3.625,0 q 1.586,0 2.4922,0.95313 0.9063,0.94531 0.9063,2.52344 0,1.64062 -0.8672,2.53125 -0.8594,0.88281 -2.4297,0.91406 l -2.2969,0 z m 0,-1.22656 2.1953,0 q 0.9532,0 1.461,-0.57032 0.5078,-0.57031 0.5078,-1.63281 0,-1.02344 -0.5234,-1.64062 -0.5235,-0.61719 -1.4375,-0.61719 l -2.2032,0 0,4.46094 z"
         style=""
         id="path4268" />
    </g>
    <path
       sodipodi:nodetypes="ccccc"
       inkscape:connector-curvature="0"
       id="path6986"
       d="m 43.000008,970.60138 219.000002,0 0,27.60182 -219.000002,0 z"
       style="opacity:1;fill:none;fill-opacity:1;fill-rule:nonzero;stroke:#8d7c70;stroke-width:1.5;stroke-linecap:round;stroke-linejoin:round;stroke-miterlimit:4;stroke-dasharray:none;stroke-dashoffset:0;stroke-opacity:1;filter:url(#filter4436)" />
    <g
       transform="translate(-1013.7149,794.89732)"
       style="font-style:normal;font-variant:normal;font-weight:normal;font-stretch:normal;font-size:16px;line-height:99.00000095%;font-family:'Roboto Condensed';-inkscape-font-specification:'Roboto Condensed, ';letter-spacing:0px;word-spacing:0px;opacity:0.97000002;fill:#8d7c70;fill-opacity:1;stroke:none;stroke-width:1px;stroke-linecap:butt;stroke-linejoin:miter;stroke-opacity:1;filter:url(#filter4436)"
       id="flowRoot6988">
      <path
         d="m 1068.1523,190.63375 -2,0 0,4.60156 -1.4375,0 0,-11.375 3.1875,0 q 1.6719,0 2.5313,0.875 0.8594,0.86719 0.8594,2.54688 0,1.05469 -0.4688,1.84375 -0.4609,0.78125 -1.3125,1.17969 l 2.2031,4.83593 0,0.0937 -1.539,0 -2.0235,-4.60156 z m -2,-1.22656 1.7344,0 q 0.8985,0 1.4297,-0.57813 0.5391,-0.57812 0.5391,-1.54687 0,-2.1875 -1.9844,-2.1875 l -1.7188,0 0,4.3125 z"
         style=""
         id="path4271" />
      <path
         d="m 1079.9961,183.86031 0,8.08594 q -0.016,1.61719 -0.9375,2.53125 -0.9219,0.91406 -2.5703,0.91406 -1.6875,0 -2.5781,-0.89062 -0.8907,-0.89844 -0.9063,-2.55469 l 0,-8.08594 1.4219,0 0,8.03125 q 0,1.14844 0.4844,1.71875 0.4921,0.5625 1.5781,0.5625 1.0937,0 1.5781,-0.5625 0.4922,-0.57031 0.4922,-1.71875 l 0,-8.03125 1.4375,0 z"
         style=""
         id="path4273" />
      <path
         d="m 1089.6445,195.23531 -1.4375,0 -4.5547,-8.76562 0,8.76562 -1.4375,0 0,-11.375 1.4375,0 4.5704,8.80469 0,-8.80469 1.4218,0 0,11.375 z"
         style=""
         id="path4275" />
      <path
         d="m 1099.5508,195.23531 -1.4375,0 -4.5547,-8.76562 0,8.76562 -1.4375,0 0,-11.375 1.4375,0 4.5703,8.80469 0,-8.80469 1.4219,0 0,11.375 z"
         style=""
         id="path4277" />
      <path
         d="m 1103.5195,195.23531 -1.4297,0 0,-11.375 1.4297,0 0,11.375 z"
         style=""
         id="path4279" />
      <path
         d="m 1113.457,195.23531 -1.4375,0 -4.5547,-8.76562 0,8.76562 -1.4375,0 0,-11.375 1.4375,0 4.5704,8.80469 0,-8.80469 1.4218,0 0,11.375 z"
         style=""
         id="path4281" />
      <path
         d="m 1123.0508,193.82125 -0.25,0.3125 q -1.0781,1.25781 -3.1563,1.25781 -1.8437,0 -2.8984,-1.21875 -1.0469,-1.22656 -1.0703,-3.46093 l 0,-2.23438 q 0,-2.39062 0.9531,-3.57812 0.9609,-1.19532 2.8672,-1.19532 1.625,0 2.5391,0.90625 0.9218,0.90625 1.0156,2.58594 l -1.4297,0 q -0.086,-1.0625 -0.5938,-1.65625 -0.5,-0.60156 -1.5234,-0.60156 -1.2266,0 -1.7969,0.80469 -0.5703,0.79687 -0.5937,2.55468 l 0,2.32032 q 0,1.71875 0.6562,2.64062 0.6563,0.91406 1.8828,0.91406 1.1563,0 1.7579,-0.5625 l 0.2109,-0.19531 0,-2.625 -2.0781,0 0,-1.21875 3.5078,0 0,4.25 z"
         style=""
         id="path4283" />
      <path
         d="m 1134.332,190.21188 -3.8437,0 0,5.02343 -1.4297,0 0,-11.375 5.9219,0 0,1.23438 -4.4922,0 0,3.89062 3.8437,0 0,1.22657 z"
         style=""
         id="path4285" />
      <path
         d="m 1144.1445,190.54781 q 0,2.32813 -0.9922,3.58594 -0.9921,1.25781 -2.8203,1.25781 -1.7578,0 -2.7812,-1.21875 -1.0156,-1.22656 -1.0547,-3.46093 l 0,-2.14063 q 0,-2.28125 1.0078,-3.57031 1.0078,-1.29688 2.8125,-1.29688 1.7969,0 2.7969,1.24219 1.0078,1.23438 1.0312,3.53125 l 0,2.07031 z m -1.4297,-1.99218 q 0,-1.80469 -0.5937,-2.67969 -0.5859,-0.88281 -1.8047,-0.88281 -1.1797,0 -1.7891,0.89062 -0.6015,0.89063 -0.6093,2.625 l 0,2.03906 q 0,1.74219 0.6015,2.65625 0.6094,0.91407 1.8125,0.91407 1.2032,0 1.7813,-0.84375 0.5781,-0.84375 0.6015,-2.58594 l 0,-2.13281 z"
         style=""
         id="path4287" />
      <path
         d="m 1149.8086,190.63375 -2,0 0,4.60156 -1.4375,0 0,-11.375 3.1875,0 q 1.6719,0 2.5312,0.875 0.8594,0.86719 0.8594,2.54688 0,1.05469 -0.4687,1.84375 -0.461,0.78125 -1.3125,1.17969 l 2.2031,4.83593 0,0.0937 -1.5391,0 -2.0234,-4.60156 z m -2,-1.22656 1.7344,0 q 0.8984,0 1.4297,-0.57813 0.539,-0.57812 0.539,-1.54687 0,-2.1875 -1.9844,-2.1875 l -1.7187,0 0,4.3125 z"
         style=""
         id="path4289" />
    </g>
  </g>
</svg>
